<svg width="696" height="714" viewBox="0 0 696 714" fill="none" xmlns="http://www.w3.org/2000/svg">
<mask id="mask0" mask-type="alpha" maskUnits="userSpaceOnUse" x="0" y="0" width="952" height="714">
<path d="M952 0H0V714H952V0Z" fill="white"/>
</mask>
<g mask="url(#mask0)">
<path d="M952 0H0V714H952V0Z" fill="#F2F2F2"/>
<path fill-rule="evenodd" clip-rule="evenodd" d="M92.225 -108.29C122.457 -108.29 146.965 -83.8081 146.965 -53.6081V210.688C146.965 240.888 122.457 265.37 92.225 265.37H37.485V-53.6081C37.485 -83.8081 61.9929 -108.29 92.225 -108.29Z" fill="#F2F2F2"/>
<path fill-rule="evenodd" clip-rule="evenodd" d="M420.07 55.93C450.302 55.93 474.81 80.4133 474.81 110.615V595.488C474.81 625.69 450.302 650.173 420.07 650.173C399.915 650.173 381.669 662.326 365.33 686.63V110.615C365.33 80.4133 389.838 55.93 420.07 55.93Z" fill="#0CC965"/>
<path fill-rule="evenodd" clip-rule="evenodd" d="M420.07 -184.45C450.302 -184.45 474.81 -159.959 474.81 -129.747V355.289C474.81 385.5 450.302 409.992 420.07 409.992C399.915 409.992 381.669 428.226 365.33 464.695V-129.747C365.33 -159.959 389.838 -184.45 420.07 -184.45Z" fill="#F2F2F2"/>
<path fill-rule="evenodd" clip-rule="evenodd" d="M92.225 484.33C122.457 484.33 146.965 508.812 146.965 539.012V803.308C146.965 833.508 122.457 857.99 92.225 857.99H37.485V539.012C37.485 508.812 61.9929 484.33 92.225 484.33Z" fill="#F7A31D"/>
<path fill-rule="evenodd" clip-rule="evenodd" d="M365.33 483.438H146.965V-30.1863H236.131V-33.32H365.33V483.438ZM365.33 485.223V501.288H146.965V485.223H365.33ZM365.33 504.263V518.84H146.965V504.263H365.33ZM365.33 523.6V536.393H146.965V523.6H365.33ZM365.33 542.938V553.648H146.965V542.938H365.33ZM365.33 561.383V571.795H146.965V561.383H365.33ZM365.33 581.315V588.436C365.33 588.541 365.33 588.647 365.329 588.753H146.966C146.965 588.647 146.965 588.541 146.965 588.436V581.315H365.33ZM364.098 600.058C363.616 602.293 362.999 604.478 362.254 606.603H150.041C149.296 604.478 148.679 602.293 148.197 600.058H364.098ZM355.976 619.098C354.787 620.859 353.498 622.548 352.118 624.155H160.177C158.797 622.548 157.508 620.859 156.319 619.098H355.976ZM333.034 638.435C326.227 641.494 318.681 643.195 310.739 643.195H201.556C193.614 643.195 186.068 641.494 179.261 638.435H333.034H333.034Z" fill="#200748" fill-opacity="0.65"/>
<mask id="mask1" mask-type="alpha" maskUnits="userSpaceOnUse" x="146" y="-34" width="220" height="489">
<path d="M146.965 -33.4739H365.33V169.729C365.33 199.924 340.889 224.402 310.739 224.402C280.589 224.402 256.148 248.881 256.148 279.076V345.079C256.148 405.47 207.265 454.426 146.965 454.426V-33.4739Z" fill="white"/>
</mask>
<g mask="url(#mask1)">
<path d="M146.965 -33.4739H365.33V169.729C365.33 199.924 340.889 224.402 310.739 224.402C280.589 224.402 256.148 248.881 256.148 279.076V345.079C256.148 405.47 207.265 454.426 146.965 454.426V-33.4739Z" fill="#F7A31D"/>
</g>
<path fill-rule="evenodd" clip-rule="evenodd" d="M693.77 264.775V579.008C693.77 609.22 669.262 633.712 639.03 633.712C618.875 633.712 600.629 651.946 584.29 688.415V218.134C588.204 244.526 610.955 264.775 638.435 264.775H693.77Z" fill="#3D2C42"/>
<mask id="mask2" mask-type="alpha" maskUnits="userSpaceOnUse" x="584" y="374" width="110" height="374">
<path d="M638.976 374.255C669.177 374.255 693.661 398.716 693.661 428.891V692.965C693.661 723.139 669.177 747.601 638.976 747.601C608.774 747.601 584.29 723.139 584.29 692.965V428.891C584.29 398.716 608.774 374.255 638.976 374.255Z" fill="white"/>
</mask>
<g mask="url(#mask2)">
<path d="M638.976 374.255C669.177 374.255 693.661 398.716 693.661 428.891V692.965C693.661 723.139 669.177 747.601 638.976 747.601C608.774 747.601 584.29 723.139 584.29 692.965V428.891C584.29 398.716 608.774 374.255 638.976 374.255Z" fill="#F7A31D"/>
</g>
<path fill-rule="evenodd" clip-rule="evenodd" d="M91.63 409.801C86.3722 409.801 82.11 405.509 82.11 400.214C82.11 394.92 86.3722 390.628 91.63 390.628C96.8877 390.628 101.15 394.92 101.15 400.214C101.15 405.509 96.8877 409.801 91.63 409.801ZM91.63 456.365C86.3722 456.365 82.11 452.073 82.11 446.778C82.11 441.484 86.3722 437.192 91.63 437.192C96.8877 437.192 101.15 441.484 101.15 446.778C101.15 452.073 96.8877 456.365 91.63 456.365ZM91.63 316.673C86.3722 316.673 82.11 312.381 82.11 307.087C82.11 301.792 86.3722 297.5 91.63 297.5C96.8877 297.5 101.15 301.792 101.15 307.087C101.15 312.381 96.8877 316.673 91.63 316.673ZM91.63 363.237C86.3722 363.237 82.11 358.945 82.11 353.651C82.11 348.356 86.3722 344.064 91.63 344.064C96.8877 344.064 101.15 348.356 101.15 353.651C101.15 358.945 96.8877 363.237 91.63 363.237Z" fill="#0CC965"/>
<mask id="mask3" mask-type="alpha" maskUnits="userSpaceOnUse" x="371" y="-27" width="209" height="209">
<path d="M475.25 181.696C532.671 181.696 579.219 135.161 579.219 77.7579C579.219 20.3546 532.671 -26.18 475.25 -26.18C417.829 -26.18 371.28 20.3546 371.28 77.7579C371.28 135.161 417.829 181.696 475.25 181.696Z" fill="white"/>
</mask>
<g mask="url(#mask3)">
<path d="M475.25 181.696C532.671 181.696 579.219 135.161 579.219 77.7579C579.219 20.3546 532.671 -26.18 475.25 -26.18C417.829 -26.18 371.28 20.3546 371.28 77.7579C371.28 135.161 417.829 181.696 475.25 181.696Z" fill="#0CC965"/>
<path fill-rule="evenodd" clip-rule="evenodd" d="M694.133 -33.4739V587.64C694.133 617.862 669.634 642.361 639.413 642.361H529.971C499.749 642.361 475.25 617.862 475.25 587.64V-33.4739H694.133Z" fill="#F2F2F2"/>
<path d="M579.22 76.8462H475.25V253.723H579.22V76.8462Z" fill="#200748" fill-opacity="0.65"/>
</g>
<path d="M420.498 497.004C494.014 497.004 553.611 437.426 553.611 363.932C553.611 290.438 494.014 230.86 420.498 230.86C346.982 230.86 287.385 290.438 287.385 363.932C287.385 437.426 346.982 497.004 420.498 497.004Z" fill="#F2F2F2"/>
<path d="M458.791 374.87C491.017 374.87 517.142 348.753 517.142 316.537C517.142 284.32 491.017 258.204 458.791 258.204C426.564 258.204 400.44 284.32 400.44 316.537C400.44 348.753 426.564 374.87 458.791 374.87Z" fill="#0CC965"/>
<path d="M256.148 174.335C279.314 174.335 298.095 155.554 298.095 132.388C298.095 109.221 279.314 90.44 256.148 90.44C232.981 90.44 214.2 109.221 214.2 132.388C214.2 155.554 232.981 174.335 256.148 174.335Z" fill="#200748" fill-opacity="0.65"/>
<path d="M649.442 237.405C672.609 237.405 691.39 218.624 691.39 195.458C691.39 172.291 672.609 153.51 649.442 153.51C626.276 153.51 607.495 172.291 607.495 195.458C607.495 218.624 626.276 237.405 649.442 237.405Z" fill="#200748" fill-opacity="0.65"/>
<path d="M178.5 90.44C187.044 90.44 193.97 83.5138 193.97 74.97C193.97 66.4262 187.044 59.5 178.5 59.5C169.956 59.5 163.03 66.4262 163.03 74.97C163.03 83.5138 169.956 90.44 178.5 90.44Z" fill="#200748" fill-opacity="0.65"/>
<path d="M194.267 238.595C205.605 238.595 214.795 229.405 214.795 218.067C214.795 206.73 205.605 197.54 194.267 197.54C182.93 197.54 173.74 206.73 173.74 218.067C173.74 229.405 182.93 238.595 194.267 238.595Z" fill="#F2F2F2"/>
</g>
</svg>
