<svg width="752" height="569" viewBox="0 0 752 569" fill="none" xmlns="http://www.w3.org/2000/svg">
<g id="Inn 1" clip-path="url(#clip0)">
<g id="Patterns">
<g id="Inn">
<g id="Shape">
<path id="Vector" d="M647.926 415.802C647.904 422.556 649.208 429.248 651.765 435.496C654.322 441.744 658.081 447.426 662.828 452.217C667.574 457.009 673.216 460.816 679.43 463.421C685.643 466.026 692.308 467.379 699.043 467.401C705.778 467.423 712.452 466.115 718.683 463.551C724.914 460.987 730.58 457.218 735.359 452.458C740.137 447.698 743.934 442.041 746.532 435.81C749.131 429.579 750.479 422.896 750.502 416.142L699.214 415.972L647.926 415.802Z" fill="#6ED47C"/>
<path id="Vector_2" d="M750.338 465.625C743.584 465.603 736.892 466.907 730.645 469.464C724.397 472.021 718.715 475.78 713.924 480.527C709.133 485.274 705.326 490.916 702.721 497.13C700.115 503.344 698.763 510.009 698.741 516.745C698.719 523.48 700.026 530.154 702.59 536.385C705.154 542.617 708.924 548.284 713.684 553.062C718.443 557.841 724.1 561.637 730.331 564.236C736.561 566.834 743.244 568.183 749.998 568.205L750.168 516.915L750.338 465.625Z" fill="#F7A31D"/>
<path id="Vector_3" d="M638.057 290.392C644.81 290.415 651.493 291.767 657.724 294.372C663.954 296.978 669.611 300.785 674.37 305.577C679.13 310.368 682.899 316.05 685.463 322.298C688.027 328.546 689.335 335.238 689.313 341.992L637.886 341.821L638.057 290.392Z" fill="#161616"/>
<path id="Vector_4" d="M750.541 404.188C743.788 404.166 737.105 402.814 730.874 400.208C724.644 397.603 718.987 393.796 714.227 389.004C709.468 384.213 705.698 378.531 703.134 372.283C700.57 366.035 699.263 359.343 699.285 352.589L750.712 352.759L750.541 404.188Z" fill="#F7A31D"/>
<path id="Vector_5" d="M688.735 516.295C688.713 523.048 687.36 529.731 684.755 535.963C682.15 542.194 678.343 547.851 673.552 552.61C668.76 557.37 663.078 561.14 656.831 563.703C650.583 566.267 643.891 567.575 637.138 567.553L637.308 516.124L688.735 516.295Z" fill="#0CC965"/>
<path id="Vector_6" d="M750.832 316.481C750.785 330.683 739.234 342.157 725.033 342.11L699.32 342.025L699.491 290.596L725.204 290.681C739.405 290.728 750.879 302.28 750.832 316.481Z" fill="#0CC965"/>
<path id="Vector_7" d="M689.193 377.992C689.24 363.791 677.766 352.24 663.565 352.192L637.852 352.107L637.681 403.536L663.395 403.621C677.596 403.669 689.146 392.194 689.193 377.992Z" fill="#048ECB"/>
<path id="Vector_8" d="M657.908 465.319C646.624 465.281 637.446 474.399 637.409 485.684C637.372 496.968 646.489 506.147 657.773 506.184C669.057 506.221 678.235 497.104 678.272 485.819C678.31 474.534 669.192 465.356 657.908 465.319Z" fill="#0CC965"/>
<path id="Vector_9" d="M1.45349 463.143C1.4311 469.896 2.7388 476.588 5.30282 482.837C7.86684 489.085 11.6362 494.767 16.3958 499.558C21.1555 504.35 26.8122 508.157 33.0427 510.762C39.2732 513.367 45.9564 514.72 52.7097 514.742L52.8802 463.313L1.45349 463.143Z" fill="#6ED47C"/>
<path id="Vector_10" d="M165.572 514.56C162.214 514.549 158.886 515.203 155.779 516.485C152.672 517.767 149.846 519.652 147.464 522.032C145.081 524.412 143.188 527.24 141.892 530.356C140.596 533.471 139.924 536.813 139.913 540.19C139.902 543.567 140.552 546.913 141.827 550.037C143.102 553.161 144.976 556.002 147.343 558.398C149.71 560.793 152.523 562.697 155.621 563.999C158.72 565.302 162.043 565.978 165.402 565.989L165.487 540.275L165.572 514.56Z" fill="#6ED47C"/>
<path id="Vector_11" d="M62.5477 565.926C69.3012 565.949 75.9929 564.644 82.2408 562.087C88.4886 559.53 94.1704 555.771 98.9616 551.024C103.753 546.277 107.56 540.636 110.165 534.422C112.77 528.207 114.122 521.542 114.144 514.807C114.167 508.071 112.859 501.397 110.295 495.166C107.731 488.935 103.962 483.268 99.202 478.489C94.4424 473.711 88.7857 469.914 82.555 467.316C76.3241 464.717 69.6412 463.369 62.8878 463.346L62.7177 514.636L62.5477 565.926Z" fill="#F7A31D"/>
<path id="Vector_12" d="M114.722 340.365C114.7 347.119 113.348 353.802 110.743 360.033C108.137 366.264 104.331 371.921 99.5394 376.681C94.7481 381.441 89.0663 385.21 82.8185 387.774C76.5705 390.338 69.8788 391.646 63.1253 391.624L63.2958 340.195L114.722 340.365Z" fill="#161616"/>
<path id="Vector_13" d="M53.4582 289.01C46.7049 288.988 40.0129 290.292 33.7653 292.849C27.5177 295.407 21.8358 299.166 17.0446 303.913C12.2533 308.66 8.44645 314.301 5.84112 320.515C3.23578 326.729 1.8838 333.395 1.86147 340.13C1.83915 346.865 3.1469 353.54 5.71098 359.771C8.27506 366.002 12.0444 371.668 16.8041 376.447C21.5638 381.226 27.2206 385.022 33.4511 387.621C39.6817 390.22 46.3648 391.568 53.1182 391.59L53.2882 340.3L53.4582 289.01Z" fill="#6ED47C"/>
<path id="Vector_14" d="M165.776 453.123C159.023 453.101 152.34 451.752 146.109 449.154C139.878 446.555 134.221 442.759 129.462 437.98C124.702 433.201 120.933 427.535 118.369 421.304C115.805 415.072 114.497 408.398 114.519 401.663C114.542 394.928 115.894 388.262 118.499 382.048C121.104 375.834 124.911 370.193 129.702 365.446C134.493 360.699 140.175 356.94 146.423 354.382C152.671 351.825 159.363 350.521 166.116 350.543L165.946 401.833L165.776 453.123Z" fill="#E6E6E6"/>
<path id="Vector_15" d="M104.341 453.198C104.363 446.444 103.059 439.752 100.502 433.504C97.9454 427.256 94.1865 421.574 89.4397 416.783C84.6931 411.991 79.0517 408.184 72.8379 405.579C66.6239 402.973 59.9589 401.621 53.2238 401.599C46.4887 401.576 39.8148 402.884 33.584 405.448C27.3533 408.013 21.6868 411.782 16.9084 416.542C12.1299 421.302 8.33327 426.959 5.73487 433.19C3.13646 439.421 1.78803 446.104 1.76564 452.858L53.0533 453.028L104.341 453.198Z" fill="#6ED47C"/>
<path id="Vector_16" d="M114.809 314.373C114.856 300.171 126.406 288.696 140.607 288.743L166.321 288.829L166.15 340.258L140.437 340.172C126.236 340.125 114.762 328.574 114.809 314.373Z" fill="#F7A31D"/>
<path id="Vector_17" d="M32.245 524.682C20.9609 524.645 11.783 533.762 11.7456 545.047C11.7082 556.332 20.8255 565.51 32.1096 565.547C43.3937 565.585 52.5716 556.467 52.609 545.182C52.6464 533.898 43.5292 524.72 32.245 524.682Z" fill="#0CC965"/>
<path id="Vector_18" d="M145.309 463.619C134.025 463.582 124.847 472.7 124.81 483.984C124.773 495.269 133.89 504.447 145.174 504.485C156.458 504.522 165.636 495.404 165.673 484.12C165.711 472.835 156.594 463.657 145.309 463.619Z" fill="#F7A31D"/>
<path id="Vector_19" d="M84.455 288.557C73.1709 288.52 63.993 297.637 63.9556 308.922C63.9182 320.207 73.0354 329.385 84.3195 329.422C95.6036 329.46 104.782 320.342 104.819 309.058C104.856 297.773 95.7391 288.595 84.455 288.557Z" fill="#0CC965"/>
<path id="Vector_20" d="M463.42 392.951C463.442 386.197 464.794 379.514 467.4 373.283C470.005 367.051 473.812 361.395 478.603 356.635C483.394 351.875 489.076 348.106 495.324 345.542C501.572 342.978 508.264 341.67 515.017 341.692L514.846 393.121L463.42 392.951Z" fill="#0CC965"/>
<path id="Vector_21" d="M299.337 330.691C302.695 330.702 306.019 331.378 309.117 332.681C312.216 333.984 315.029 335.887 317.396 338.283C319.762 340.678 321.637 343.519 322.912 346.643C324.186 349.768 324.837 353.114 324.826 356.49C324.815 359.867 324.142 363.209 322.847 366.325C321.551 369.44 319.658 372.269 317.275 374.649C314.892 377.028 312.067 378.913 308.96 380.195C305.853 381.477 302.525 382.131 299.166 382.12L299.337 330.691Z" fill="#161616"/>
<path id="Vector_22" d="M411.585 515.932C414.943 515.943 418.267 516.619 421.365 517.922C424.464 519.224 427.277 521.128 429.644 523.523C432.01 525.919 433.885 528.76 435.16 531.884C436.434 535.008 437.085 538.354 437.074 541.731C437.063 545.108 436.39 548.45 435.095 551.565C433.799 554.68 431.906 557.509 429.524 559.889C427.14 562.269 424.315 564.154 421.208 565.436C418.101 566.717 414.773 567.372 411.414 567.361L411.585 515.932Z" fill="#F7A31D"/>
<path id="Vector_23" d="M627.877 342.344C624.518 342.333 621.195 341.657 618.096 340.354C614.998 339.052 612.185 337.148 609.818 334.753C607.451 332.357 605.577 329.516 604.302 326.392C603.027 323.268 602.376 319.922 602.388 316.545C602.399 313.168 603.071 309.827 604.367 306.711C605.663 303.595 607.556 300.767 609.938 298.387C612.321 296.007 615.147 294.122 618.254 292.84C621.361 291.558 624.689 290.904 628.047 290.915L627.877 342.344Z" fill="#6ED47C"/>
<path id="Vector_24" d="M525.194 290.574C531.947 290.597 538.63 291.946 544.861 294.544C551.092 297.142 556.749 300.939 561.508 305.717C566.268 310.496 570.037 316.163 572.601 322.394C575.165 328.625 576.473 335.299 576.451 342.035C576.428 348.77 575.076 355.435 572.471 361.65C569.866 367.864 566.059 373.505 561.268 378.252C556.477 382.999 550.795 386.758 544.547 389.315C538.299 391.872 531.607 393.177 524.854 393.154L525.194 290.574Z" fill="#6ED47C"/>
<path id="Vector_25" d="M575.872 516.476L524.446 516.306L524.616 464.877C531.37 464.899 538.052 466.251 544.283 468.857C550.514 471.462 556.171 475.269 560.93 480.061C565.69 484.853 569.459 490.535 572.023 496.783C574.587 503.03 575.895 509.723 575.872 516.476Z" fill="#F7A31D"/>
<path id="Vector_26" d="M514.269 567.424C507.515 567.401 500.832 566.053 494.602 563.454C488.371 560.856 482.714 557.059 477.955 552.28C473.195 547.502 469.426 541.835 466.862 535.604C464.298 529.373 462.99 522.699 463.012 515.963C463.034 509.228 464.386 502.562 466.992 496.349C469.597 490.135 473.404 484.493 478.195 479.746C482.987 474.999 488.668 471.24 494.916 468.683C501.164 466.126 507.856 464.821 514.609 464.844L514.269 567.424Z" fill="#0CC965"/>
<path id="Vector_27" d="M402.048 290.166C402.026 296.92 400.677 303.603 398.079 309.834C395.48 316.065 391.684 321.722 386.905 326.482C382.127 331.242 376.46 335.011 370.229 337.575C363.999 340.139 357.325 341.447 350.59 341.425C343.855 341.403 337.19 340.05 330.976 337.445C324.762 334.84 319.121 331.033 314.374 326.242C309.627 321.45 305.868 315.768 303.311 309.52C300.754 303.272 299.45 296.58 299.473 289.826L402.048 290.166Z" fill="#048ECB"/>
<path id="Vector_28" d="M186.385 441.516C186.408 434.762 187.756 428.079 190.355 421.848C192.953 415.617 196.75 409.96 201.528 405.2C206.307 400.44 211.973 396.671 218.204 394.107C224.435 391.543 231.109 390.235 237.844 390.257C244.579 390.279 251.244 391.632 257.458 394.237C263.671 396.842 269.313 400.649 274.059 405.441C278.806 410.232 282.565 415.914 285.122 422.162C287.679 428.41 288.983 435.102 288.961 441.856L186.385 441.516Z" fill="#0CC965"/>
<path id="Vector_29" d="M289.125 392.373C282.372 392.35 275.689 391.002 269.458 388.403C263.227 385.805 257.571 382.008 252.811 377.23C248.051 372.451 244.282 366.785 241.718 360.553C239.154 354.322 237.846 347.648 237.868 340.912C237.891 334.177 239.243 327.512 241.848 321.298C244.453 315.083 248.26 309.442 253.051 304.695C257.843 299.948 263.525 296.189 269.772 293.632C276.02 291.075 282.712 289.77 289.465 289.793L289.125 392.373Z" fill="#F7A31D"/>
<path id="Vector_30" d="M340.069 454.257C340.047 461.011 338.698 467.694 336.1 473.925C333.501 480.156 329.705 485.813 324.926 490.573C320.148 495.333 314.482 499.102 308.251 501.666C302.02 504.231 295.346 505.538 288.611 505.516C281.876 505.494 275.211 504.142 268.997 501.536C262.783 498.931 257.142 495.124 252.395 490.332C247.649 485.541 243.89 479.859 241.333 473.611C238.776 467.363 237.471 460.671 237.494 453.917L340.069 454.257Z" fill="#048ECB"/>
<path id="Vector_31" d="M298.553 566.987C298.576 560.233 299.924 553.55 302.523 547.319C305.121 541.088 308.918 535.431 313.696 530.671C318.475 525.911 324.141 522.142 330.372 519.577C336.603 517.013 343.277 515.705 350.012 515.728C356.747 515.75 363.412 517.102 369.625 519.707C375.839 522.313 381.481 526.12 386.227 530.911C390.974 535.703 394.733 541.385 397.29 547.633C399.847 553.881 401.151 560.573 401.129 567.327L298.553 566.987Z" fill="#0CC965"/>
<path id="Vector_32" d="M411.958 403.344C418.711 403.366 425.395 404.715 431.625 407.313C437.856 409.912 443.512 413.709 448.272 418.487C453.032 423.266 456.801 428.933 459.365 435.164C461.929 441.395 463.237 448.069 463.215 454.804C463.192 461.54 461.84 468.205 459.235 474.419C456.63 480.633 452.823 486.275 448.032 491.022C443.24 495.769 437.559 499.528 431.311 502.085C425.063 504.642 418.371 505.946 411.618 505.924L411.958 403.344Z" fill="#6ED47C"/>
<path id="Vector_33" d="M627.672 404.059L627.332 506.639C620.579 506.617 613.896 505.268 607.665 502.67C601.434 500.071 595.778 496.274 591.018 491.496C586.258 486.717 582.489 481.05 579.925 474.819C577.361 468.588 576.053 461.914 576.076 455.179C576.098 448.443 577.45 441.778 580.055 435.564C582.66 429.35 586.467 423.708 591.258 418.961C596.05 414.214 601.731 410.455 607.979 407.898C614.227 405.341 620.919 404.037 627.672 404.059Z" fill="#0CC965"/>
<path id="Vector_34" d="M566.239 403.577C566.217 410.331 564.868 417.014 562.27 423.245C559.672 429.476 555.875 435.133 551.097 439.893C546.318 444.653 540.652 448.422 534.421 450.987C528.19 453.551 521.516 454.859 514.781 454.836C508.046 454.814 501.381 453.462 495.167 450.857C488.953 448.251 483.312 444.444 478.565 439.653C473.819 434.861 470.06 429.179 467.502 422.931C464.945 416.683 463.641 409.991 463.664 403.237L566.239 403.577Z" fill="#F7A31D"/>
<path id="Vector_35" d="M350.559 392.577C350.581 385.823 351.93 379.14 354.528 372.908C357.127 366.677 360.923 361.02 365.702 356.261C370.48 351.501 376.147 347.731 382.377 345.167C388.608 342.603 395.282 341.295 402.017 341.318C408.752 341.34 415.417 342.692 421.631 345.297C427.845 347.903 433.486 351.71 438.233 356.501C442.979 361.292 446.738 366.974 449.295 373.223C451.853 379.471 453.157 386.163 453.134 392.917L350.559 392.577Z" fill="#F7A31D"/>
<path id="Vector_36" d="M350.354 454.291L401.781 454.462L401.611 505.891C394.857 505.868 388.174 504.516 381.944 501.911C375.713 499.305 370.056 495.498 365.297 490.707C360.537 485.915 356.768 480.233 354.204 473.985C351.64 467.737 350.332 461.045 350.354 454.291Z" fill="#161616"/>
<path id="Vector_37" d="M175.685 566.579L175.856 515.15L227.283 515.321C227.26 522.074 225.908 528.758 223.303 534.989C220.697 541.219 216.89 546.876 212.099 551.636C207.308 556.396 201.626 560.166 195.378 562.73C189.131 565.294 182.439 566.602 175.685 566.579Z" fill="#161616"/>
<path id="Vector_38" d="M350.388 444.005L298.962 443.835L299.132 392.406C305.886 392.428 312.569 393.781 318.799 396.386C325.03 398.992 330.686 402.799 335.446 407.59C340.206 412.382 343.975 418.064 346.539 424.312C349.103 430.56 350.411 437.252 350.388 444.005Z" fill="#F7A31D"/>
<path id="Vector_39" d="M227.86 341.018L176.434 340.848L176.604 289.419C183.357 289.441 190.041 290.794 196.271 293.399C202.502 296.004 208.158 299.811 212.918 304.603C217.678 309.394 221.447 315.076 224.011 321.324C226.575 327.572 227.883 334.264 227.86 341.018Z" fill="#E6E6E6"/>
<path id="Vector_40" d="M437.876 341.714C423.675 341.667 412.201 330.116 412.248 315.915L412.333 290.2L463.76 290.371L463.675 316.085C463.628 330.287 452.077 341.761 437.876 341.714Z" fill="#E6E6E6"/>
<path id="Vector_41" d="M575.787 542.191C575.834 527.989 587.384 516.515 601.586 516.562L627.299 516.647L627.128 568.076L601.415 567.991C587.214 567.944 575.74 556.392 575.787 542.191Z" fill="#048ECB"/>
<path id="Vector_42" d="M288.631 541.239C288.584 555.441 277.034 566.915 262.833 566.868L237.119 566.783L237.29 515.354L263.003 515.439C277.204 515.486 288.678 527.037 288.631 541.239Z" fill="#048ECB"/>
<path id="Vector_43" d="M227.401 479.598C227.354 493.8 215.803 505.275 201.602 505.228L175.889 505.143L176.059 453.714L201.773 453.799C215.974 453.846 227.448 465.397 227.401 479.598Z" fill="#6ED47C"/>
<path id="Vector_44" d="M494.619 331.339C483.335 331.301 474.218 322.123 474.255 310.838C474.293 299.554 483.471 290.436 494.755 290.473C506.039 290.511 515.156 299.689 515.119 310.974C515.081 322.258 505.903 331.376 494.619 331.339Z" fill="#F7A31D"/>
<path id="Vector_45" d="M607.277 393.15C595.992 393.112 586.875 383.934 586.913 372.649C586.95 361.365 596.128 352.247 607.412 352.284C618.696 352.322 627.813 361.5 627.776 372.785C627.739 384.069 618.561 393.187 607.277 393.15Z" fill="#E6E6E6"/>
<path id="Vector_46" d="M545.263 567.804C533.979 567.767 524.861 558.589 524.899 547.304C524.936 536.02 534.114 526.902 545.398 526.939C556.682 526.977 565.799 536.155 565.762 547.44C565.725 558.724 556.547 567.842 545.263 567.804Z" fill="#161616"/>
<path id="Vector_47" d="M381.106 443.829C369.822 443.792 360.705 434.614 360.742 423.329C360.78 412.044 369.958 402.927 381.242 402.964C392.526 403.002 401.643 412.18 401.606 423.464C401.568 434.749 392.391 443.867 381.106 443.829Z" fill="#6ED47C"/>
<path id="Vector_48" d="M196.697 391.788C185.413 391.751 176.295 382.573 176.333 371.288C176.37 360.004 185.548 350.886 196.832 350.923C208.116 350.961 217.234 360.139 217.196 371.424C217.159 382.708 207.981 391.826 196.697 391.788Z" fill="#0CC965"/>
<path id="Vector_49" d="M587.245 104.522C587.268 97.7678 588.62 91.0846 591.225 84.8535C593.831 78.6224 597.638 72.9655 602.429 68.2057C607.22 63.4459 612.902 59.6765 619.15 57.1125C625.397 54.5487 632.089 53.2407 638.843 53.2631L638.672 104.692L587.245 104.522Z" fill="#6ED47C"/>
<path id="Vector_50" d="M423.163 42.2623C426.521 42.2735 429.844 42.9495 432.943 44.2521C436.041 45.5547 438.854 47.4582 441.222 49.8538C443.588 52.2495 445.463 55.0906 446.738 58.2146C448.012 61.3388 448.663 64.6848 448.652 68.0616C448.64 71.4384 447.968 74.78 446.672 77.8956C445.377 81.0112 443.483 83.8397 441.101 86.2196C438.718 88.5995 435.892 90.4843 432.785 91.7663C429.678 93.0483 426.35 93.7024 422.992 93.6913L423.163 42.2623Z" fill="#0CC965"/>
<path id="Vector_51" d="M535.41 227.503C538.769 227.514 542.092 228.19 545.191 229.492C548.289 230.795 551.102 232.699 553.47 235.094C555.836 237.49 557.711 240.331 558.985 243.455C560.26 246.579 560.911 249.925 560.899 253.302C560.888 256.679 560.215 260.021 558.92 263.136C557.625 266.251 555.731 269.08 553.349 271.46C550.966 273.84 548.14 275.725 545.033 277.007C541.926 278.288 538.598 278.943 535.24 278.932L535.41 227.503Z" fill="#161616"/>
<path id="Vector_52" d="M751.702 53.9153C748.344 53.9041 745.021 53.228 741.922 51.9254C738.823 50.6228 736.01 48.7193 733.644 46.3237C731.277 43.928 729.402 41.087 728.127 37.963C726.852 34.8388 726.202 31.4928 726.213 28.116C726.224 24.7392 726.897 21.3975 728.193 18.2819C729.488 15.1664 731.381 12.3378 733.764 9.9579C736.147 7.57796 738.972 5.69321 742.08 4.41122C745.187 3.12924 748.514 2.47511 751.873 2.48624L751.702 53.9153Z" fill="#161616"/>
<path id="Vector_53" d="M649.02 2.14523C655.773 2.16762 662.456 3.51648 668.687 6.11472C674.918 8.71297 680.574 12.5097 685.334 17.2883C690.094 22.0669 693.863 27.7335 696.427 33.9649C698.99 40.1963 700.299 46.8702 700.276 53.6058C700.254 60.3413 698.902 67.0064 696.297 73.2206C693.691 79.4348 689.885 85.0764 685.093 89.8233C680.302 94.5702 674.62 98.3293 668.373 100.886C662.125 103.443 655.433 104.748 648.679 104.725L649.02 2.14523Z" fill="#0CC965"/>
<path id="Vector_54" d="M699.697 228.325L648.27 228.155L648.441 176.726C655.194 176.748 661.877 178.1 668.108 180.706C674.339 183.311 679.995 187.118 684.755 191.91C689.515 196.702 693.284 202.384 695.848 208.631C698.411 214.879 699.719 221.572 699.697 228.325Z" fill="#F7A31D"/>
<path id="Vector_55" d="M638.093 279.273C631.34 279.25 624.657 277.902 618.426 275.303C612.196 272.705 606.539 268.908 601.779 264.129C597.02 259.351 593.25 253.684 590.686 247.453C588.122 241.222 586.814 234.548 586.837 227.812C586.859 221.077 588.211 214.412 590.816 208.198C593.422 201.984 597.228 196.342 602.02 191.595C606.811 186.848 612.493 183.089 618.74 180.532C624.988 177.975 631.68 176.67 638.433 176.693L638.093 279.273Z" fill="#F7A31D"/>
<path id="Vector_56" d="M525.873 1.73707C525.851 8.49082 524.503 15.174 521.904 21.4052C519.306 27.6363 515.509 33.2932 510.731 38.053C505.952 42.813 500.286 46.5824 494.055 49.1464C487.824 51.7103 481.15 53.0184 474.415 52.9961C467.68 52.9738 461.015 51.6214 454.801 49.0162C448.588 46.411 442.946 42.6041 438.2 37.8126C433.453 33.0212 429.694 27.3392 427.137 21.091C424.58 14.8428 423.276 8.15078 423.298 1.39702L525.873 1.73707Z" fill="#6ED47C"/>
<path id="Vector_57" d="M310.212 152.809C310.235 146.055 311.583 139.372 314.181 133.141C316.78 126.91 320.576 121.253 325.355 116.493C330.133 111.733 335.8 107.964 342.031 105.4C348.261 102.836 354.935 101.528 361.67 101.55C368.405 101.572 375.07 102.925 381.284 105.53C387.498 108.135 393.139 111.942 397.886 116.734C402.633 121.525 406.392 127.207 408.949 133.455C411.506 139.703 412.81 146.395 412.788 153.149L310.212 152.809Z" fill="#0CC965"/>
<path id="Vector_58" d="M412.951 103.944C406.197 103.921 399.514 102.573 393.284 99.9744C387.053 97.376 381.396 93.5793 376.637 88.8007C371.877 84.0222 368.108 78.3554 365.544 72.1242C362.979 65.8928 361.672 59.2188 361.694 52.4833C361.716 45.7478 363.068 39.0827 365.674 32.8684C368.279 26.6542 372.086 21.0126 376.877 16.2658C381.668 11.5188 387.35 7.75967 393.598 5.20279C399.845 2.64592 406.537 1.34139 413.291 1.36378L412.951 103.944Z" fill="#048ECB"/>
<path id="Vector_59" d="M463.895 165.828C463.872 172.582 462.524 179.265 459.925 185.496C457.327 191.727 453.53 197.384 448.752 202.144C443.973 206.904 438.307 210.673 432.076 213.237C425.845 215.802 419.172 217.109 412.436 217.087C405.701 217.065 399.036 215.713 392.823 213.107C386.609 210.502 380.968 206.695 376.221 201.903C371.474 197.112 367.715 191.43 365.158 185.182C362.601 178.934 361.297 172.242 361.319 165.488L463.895 165.828Z" fill="#F7A31D"/>
<path id="Vector_60" d="M422.379 278.558C422.402 271.804 423.75 265.12 426.348 258.89C428.947 252.659 432.743 247.002 437.522 242.242C442.3 237.482 447.967 233.712 454.198 231.148C460.428 228.584 467.102 227.276 473.837 227.299C480.572 227.321 487.238 228.673 493.451 231.278C499.665 233.884 505.306 237.691 510.053 242.482C514.8 247.274 518.559 252.956 521.116 259.204C523.673 265.452 524.977 272.144 524.955 278.898L422.379 278.558Z" fill="#F7A31D"/>
<path id="Vector_61" d="M535.784 114.637C542.538 114.659 549.221 116.008 555.451 118.606C561.682 121.205 567.339 125.002 572.098 129.78C576.858 134.559 580.628 140.226 583.192 146.457C585.756 152.688 587.063 159.362 587.041 166.097C587.019 172.833 585.667 179.498 583.061 185.712C580.456 191.926 576.649 197.568 571.858 202.315C567.067 207.062 561.385 210.821 555.137 213.378C548.89 215.935 542.198 217.239 535.444 217.217L535.784 114.637Z" fill="#6ED47C"/>
<path id="Vector_62" d="M751.499 115.352L751.159 217.932C744.405 217.91 737.722 216.561 731.491 213.963C725.261 211.364 719.604 207.567 714.844 202.789C710.085 198.01 706.315 192.343 703.752 186.112C701.188 179.881 699.88 173.207 699.902 166.472C699.924 159.736 701.277 153.071 703.882 146.857C706.487 140.643 710.294 135.001 715.085 130.254C719.876 125.507 725.558 121.748 731.806 119.191C738.054 116.634 744.745 115.33 751.499 115.352Z" fill="#F7A31D"/>
<path id="Vector_63" d="M690.065 115.148C690.042 121.902 688.694 128.586 686.096 134.816C683.497 141.047 679.701 146.704 674.922 151.464C670.144 156.224 664.478 159.994 658.247 162.558C652.015 165.122 645.342 166.43 638.607 166.407C631.871 166.385 625.206 165.033 618.993 162.428C612.779 159.822 607.138 156.015 602.391 151.224C597.644 146.432 593.885 140.75 591.328 134.502C588.771 128.254 587.467 121.562 587.489 114.808L690.065 115.148Z" fill="#048ECB"/>
<path id="Vector_64" d="M474.385 104.147C474.407 97.3937 475.755 90.7105 478.354 84.4793C480.952 78.2482 484.749 72.5913 489.527 67.8315C494.306 63.0716 499.972 59.3021 506.203 56.7381C512.434 54.1743 519.108 52.8662 525.843 52.8885C532.578 52.9108 539.243 54.2631 545.457 56.8683C551.67 59.4735 557.312 63.2804 562.058 68.0719C566.805 72.8633 570.564 78.5453 573.121 84.7935C575.678 91.0417 576.982 97.7338 576.96 104.488L474.385 104.147Z" fill="#F7A31D"/>
<path id="Vector_65" d="M474.18 165.862L525.607 166.033L525.436 217.462C518.683 217.439 512 216.087 505.769 213.482C499.539 210.876 493.882 207.069 489.122 202.278C484.363 197.486 480.593 191.804 478.029 185.556C475.465 179.308 474.158 172.616 474.18 165.862Z" fill="#6ED47C"/>
<path id="Vector_66" d="M299.511 278.15L299.681 226.721L351.108 226.892C351.086 233.645 349.734 240.329 347.128 246.56C344.523 252.79 340.716 258.447 335.925 263.207C331.133 267.967 325.452 271.737 319.204 274.301C312.956 276.865 306.264 278.173 299.511 278.15Z" fill="#161616"/>
<path id="Vector_67" d="M474.214 155.576L422.787 155.406L422.958 103.977C429.711 103.999 436.394 105.352 442.625 107.957C448.855 110.563 454.512 114.37 459.272 119.161C464.031 123.953 467.801 129.635 470.365 135.883C472.929 142.131 474.237 148.823 474.214 155.576Z" fill="#0CC965"/>
<path id="Vector_68" d="M351.686 52.5892L300.259 52.4188L300.43 0.989711C307.183 1.0121 313.866 2.3645 320.097 4.96973C326.327 7.57497 331.984 11.382 336.744 16.1735C341.503 20.965 345.273 26.647 347.837 32.8952C350.401 39.1435 351.708 45.8355 351.686 52.5892Z" fill="#F7A31D"/>
<path id="Vector_69" d="M561.702 53.2854C547.501 53.2383 536.027 41.6874 536.074 27.4857L536.159 1.77114L587.586 1.94163L587.5 27.6561C587.453 41.8579 575.903 53.3325 561.702 53.2854Z" fill="#048ECB"/>
<path id="Vector_70" d="M699.613 253.762C699.66 239.56 711.21 228.085 725.411 228.133L751.125 228.218L750.954 279.647L725.241 279.562C711.04 279.514 699.566 267.963 699.613 253.762Z" fill="#048ECB"/>
<path id="Vector_71" d="M412.457 252.81C412.41 267.012 400.859 278.486 386.658 278.439L360.945 278.354L361.116 226.925L386.829 227.01C401.03 227.057 412.504 238.608 412.457 252.81Z" fill="#0CC965"/>
<path id="Vector_72" d="M351.227 191.169C351.18 205.371 339.629 216.846 325.428 216.799L299.715 216.713L299.885 165.285L325.598 165.37C339.799 165.417 351.274 176.968 351.227 191.169Z" fill="#E6E6E6"/>
<path id="Vector_73" d="M618.445 42.9096C607.161 42.8722 598.044 33.6938 598.081 22.4092C598.118 11.1246 607.296 2.00699 618.58 2.0444C629.865 2.08181 638.982 11.2601 638.944 22.5447C638.907 33.8293 629.729 42.947 618.445 42.9096Z" fill="#E6E6E6"/>
<path id="Vector_74" d="M731.102 104.721C719.818 104.683 710.701 95.5048 710.738 84.2202C710.775 72.9356 719.953 63.8179 731.237 63.8553C742.522 63.8927 751.639 73.071 751.601 84.3557C751.564 95.6403 742.386 104.758 731.102 104.721Z" fill="#048ECB"/>
<path id="Vector_75" d="M669.088 279.375C657.804 279.338 648.687 270.16 648.724 258.875C648.762 247.59 657.94 238.473 669.224 238.51C680.508 238.548 689.625 247.726 689.588 259.011C689.55 270.295 680.372 279.413 669.088 279.375Z" fill="#161616"/>
<path id="Vector_76" d="M504.932 155.4C493.648 155.363 484.531 146.185 484.568 134.9C484.606 123.615 493.783 114.498 505.068 114.535C516.352 114.573 525.469 123.751 525.432 135.035C525.394 146.32 516.216 155.438 504.932 155.4Z" fill="#161616"/>
<path id="Vector_77" d="M320.522 103.359C309.238 103.322 300.121 94.1437 300.158 82.8591C300.196 71.5745 309.374 62.4568 320.658 62.4942C331.942 62.5316 341.059 71.71 341.022 82.9946C340.984 94.2792 331.807 103.397 320.522 103.359Z" fill="#161616"/>
<path id="Vector_78" d="M165.659 236.841C162.301 236.83 158.977 236.154 155.879 234.851C152.781 233.548 149.967 231.645 147.6 229.249C145.234 226.854 143.359 224.013 142.084 220.889C140.81 217.764 140.159 214.418 140.17 211.042C140.181 207.665 140.854 204.323 142.149 201.208C143.445 198.092 145.338 195.263 147.721 192.884C150.104 190.504 152.929 188.619 156.036 187.337C159.143 186.055 162.471 185.401 165.83 185.412L165.659 236.841Z" fill="#161616"/>
<path id="Vector_79" d="M53.1333 51.5995C49.7749 51.5884 46.4514 50.9118 43.353 49.6096C40.2546 48.3074 37.4416 46.4035 35.0741 44.0083C32.7077 41.612 30.8328 38.771 29.5583 35.6471C28.2838 32.5231 27.633 29.177 27.6442 25.8002C27.6554 22.4234 28.3283 19.0817 29.6235 15.9662C30.9187 12.8508 32.8125 10.0222 35.1947 7.64176C37.578 5.26229 40.4036 3.37698 43.5105 2.09537C46.6175 0.813753 49.9454 0.159315 53.3038 0.170448L53.1333 51.5995Z" fill="#161616"/>
<path id="Vector_80" d="M62.9483 277.366C62.9707 270.612 64.3192 263.929 66.9176 257.698C69.516 251.467 73.3126 245.81 78.091 241.05C82.8694 236.29 88.536 232.521 94.7668 229.957C100.998 227.393 107.671 226.085 114.407 226.107C121.142 226.129 127.807 227.482 134.02 230.087C140.234 232.692 145.875 236.499 150.622 241.29C155.369 246.082 159.128 251.764 161.685 258.012C164.242 264.26 165.546 270.952 165.524 277.706L62.9483 277.366Z" fill="#6ED47C"/>
<path id="Vector_81" d="M278.611 126.016C278.588 132.77 277.24 139.453 274.641 145.684C272.043 151.915 268.246 157.572 263.468 162.332C258.69 167.092 253.023 170.861 246.792 173.426C240.561 175.989 233.888 177.298 227.152 177.275C220.417 177.253 213.752 175.901 207.539 173.295C201.325 170.69 195.684 166.883 190.937 162.092C186.19 157.3 182.431 151.618 179.874 145.37C177.317 139.122 176.013 132.43 176.035 125.676L278.611 126.016Z" fill="#6ED47C"/>
<path id="Vector_82" d="M175.871 175.159C182.624 175.182 189.308 176.531 195.538 179.129C201.769 181.727 207.425 185.524 212.185 190.302C216.945 195.081 220.714 200.748 223.278 206.979C225.842 213.21 227.15 219.884 227.128 226.62C227.105 233.355 225.753 240.02 223.148 246.235C220.543 252.449 216.736 258.09 211.945 262.837C207.153 267.584 201.472 271.343 195.224 273.9C188.976 276.457 182.284 277.762 175.531 277.739L175.871 175.159Z" fill="#048ECB"/>
<path id="Vector_83" d="M124.927 113.275C124.949 106.521 126.298 99.8379 128.896 93.607C131.495 87.3762 135.291 81.7192 140.07 76.9593C144.848 72.1993 150.515 68.4298 156.745 65.8656C162.976 63.3015 169.65 61.9936 176.385 62.0159C183.12 62.0383 189.785 63.3903 195.999 65.9958C202.213 68.6012 207.854 72.4082 212.601 77.1997C217.348 81.9912 221.107 87.6733 223.664 93.9212C226.221 100.169 227.525 106.861 227.502 113.615L124.927 113.275Z" fill="#F7A31D"/>
<path id="Vector_84" d="M166.442 0.545509C166.42 7.29917 165.072 13.9826 162.473 20.2134C159.875 26.4443 156.078 32.1013 151.3 36.8612C146.521 41.6211 140.855 45.3906 134.624 47.9548C128.393 50.519 121.719 51.8269 114.984 51.8045C108.249 51.7822 101.584 50.4301 95.3705 47.8247C89.1569 45.2192 83.5154 41.4122 78.7687 36.6208C74.022 31.8293 70.2629 26.1472 67.7059 19.8993C65.1489 13.6514 63.8447 6.95912 63.8671 0.205465L166.442 0.545509Z" fill="#0CC965"/>
<path id="Vector_85" d="M52.76 164.187C46.0066 164.165 39.3236 162.816 33.093 160.218C26.8625 157.619 21.2057 153.822 16.446 149.044C11.6863 144.265 7.91692 138.598 5.35284 132.367C2.78875 126.136 1.48099 119.462 1.50332 112.727C1.52565 105.991 2.87763 99.326 5.48297 93.1121C8.08831 86.8981 11.8952 81.2565 16.6864 76.5095C21.4777 71.7625 27.1595 68.0033 33.4072 65.4462C39.6548 62.889 46.3467 61.5848 53.1001 61.6072L52.76 164.187Z" fill="#048ECB"/>
<path id="Vector_86" d="M114.437 174.956C114.415 181.709 113.066 188.393 110.468 194.624C107.869 200.855 104.073 206.512 99.2944 211.272C94.516 216.031 88.8494 219.801 82.6186 222.365C76.3878 224.929 69.714 226.237 62.9789 226.215C56.2438 226.192 49.5787 224.84 43.3651 222.235C37.1514 219.629 31.51 215.823 26.7633 211.031C22.0165 206.24 18.2574 200.558 15.7004 194.31C13.1434 188.061 11.8393 181.369 11.8617 174.616L114.437 174.956Z" fill="#F7A31D"/>
<path id="Vector_87" d="M114.364 113.24L62.9369 113.069L63.1074 61.6404C69.8607 61.6628 76.5438 63.0149 82.7743 65.6204C89.0048 68.2259 94.6616 72.033 99.4212 76.8245C104.181 81.616 107.95 87.2982 110.514 93.5461C113.078 99.794 114.386 106.486 114.364 113.24Z" fill="#048ECB"/>
<path id="Vector_88" d="M289.311 0.952827L289.14 52.3819L237.713 52.2114C237.736 45.4577 239.088 38.7743 241.693 32.5435C244.299 26.3127 248.105 20.6557 252.897 15.8958C257.688 11.136 263.37 7.36651 269.618 4.80237C275.865 2.23823 282.557 0.930439 289.311 0.952827Z" fill="#F7A31D"/>
<path id="Vector_89" d="M114.608 123.527L166.034 123.697L165.864 175.126C159.11 175.104 152.427 173.752 146.197 171.146C139.966 168.541 134.31 164.734 129.55 159.942C124.79 155.15 121.021 149.468 118.457 143.22C115.893 136.973 114.585 130.28 114.608 123.527Z" fill="#F7A31D"/>
<path id="Vector_90" d="M237.136 226.514L288.562 226.684L288.392 278.113C281.638 278.091 274.955 276.739 268.725 274.133C262.494 271.528 256.838 267.721 252.078 262.93C247.318 258.138 243.549 252.456 240.985 246.208C238.421 239.96 237.113 233.268 237.136 226.514Z" fill="#E6E6E6"/>
<path id="Vector_91" d="M26.8421 225.817C41.0431 225.864 52.5173 237.415 52.4703 251.616L52.385 277.331L0.95829 277.161L1.04354 251.446C1.09062 237.244 12.6412 225.77 26.8421 225.817Z" fill="#048ECB"/>
<path id="Vector_92" d="M176.365 26.2932C176.412 12.0916 187.962 0.616865 202.163 0.663942L227.877 0.749183L227.706 52.1782L201.993 52.093C187.792 52.0459 176.318 40.4948 176.365 26.2932Z" fill="#E6E6E6"/>
<path id="Vector_93" d="M237.595 87.9336C237.642 73.732 249.193 62.2573 263.394 62.3044L289.107 62.3896L288.937 113.819L263.223 113.733C249.022 113.686 237.548 102.135 237.595 87.9336Z" fill="#048ECB"/>
<path id="Vector_94" d="M83.6117 123.702C94.8958 123.739 104.013 132.918 103.976 144.202C103.938 155.487 94.7604 164.605 83.4762 164.567C72.1921 164.53 63.0749 155.351 63.1123 144.067C63.1497 132.782 72.3276 123.664 83.6117 123.702Z" fill="#0CC965"/>
<path id="Vector_95" d="M268.299 175.744C279.583 175.781 288.701 184.959 288.663 196.244C288.626 207.529 279.448 216.646 268.164 216.609C256.88 216.571 247.762 207.393 247.8 196.109C247.837 184.824 257.015 175.706 268.299 175.744Z" fill="#0CC965"/>
</g>
</g>
</g>
</g>
<defs>
<clipPath id="clip0">
<rect width="750" height="566" fill="white" transform="translate(749.997 568.483) rotate(-179.81)"/>
</clipPath>
</defs>
</svg>
