<svg width="96" height="96" viewBox="0 0 96 96" fill="none" xmlns="http://www.w3.org/2000/svg">
<path d="M48.75 38.625H54.375V27.375H48.75V16.125V4.875H0V16.125V27.375H5.625V38.625H0V49.875V61.125H5.625V72.375H0V83.625H48.75V72.375H54.375V61.125H48.75V49.875V38.625Z" fill="#FFEA84"/>
<path d="M48.75 38.625H54.375V27.375H48.75V16.125V4.875H27.1875V83.625H48.75V72.375H54.375V61.125H48.75V49.875V38.625Z" fill="#FFDC40"/>
<path d="M54.375 61.125H5.625V72.375H54.375V61.125Z" fill="#FFDC40"/>
<path d="M48.75 38.625H0V49.875H48.75V38.625Z" fill="#FFDC40"/>
<path d="M48.75 16.125H0V27.375H48.75V16.125Z" fill="#FFDC40"/>
<path d="M48.75 38.625H27.1875V49.875H48.75V38.625Z" fill="#FFAB15"/>
<path d="M48.75 16.125H27.1875V27.375H48.75V16.125Z" fill="#FFAB15"/>
<path d="M54.375 61.125H27.1875V72.375H54.375V61.125Z" fill="#FFAB15"/>
<path d="M68.8125 91.125C53.8213 91.125 41.625 78.9287 41.625 63.9375C41.625 48.9463 53.8213 36.75 68.8125 36.75C83.8037 36.75 96 48.9463 96 63.9375C96 78.9287 83.8037 91.125 68.8125 91.125Z" fill="#76CC5B"/>
<path d="M68.8125 36.75V91.125C83.8037 91.125 96 78.9287 96 63.9375C96 48.9463 83.8037 36.75 68.8125 36.75Z" fill="#599944"/>
<path d="M77.25 69.5625C77.25 64.9101 73.4649 61.125 68.8125 61.125C67.2617 61.125 66 59.8633 66 58.3125C66 57.684 66.2021 57.0902 66.5848 56.5954C67.1796 55.8259 68.1932 55.44 69.228 55.5879L74.9773 56.4092L75.7727 50.8406L71.625 50.2483V47.0625H66V50.4023C64.485 50.9241 63.132 51.8647 62.1343 53.1551C60.9834 54.6441 60.375 56.4276 60.375 58.3125C60.375 62.9649 64.1601 66.75 68.8125 66.75C70.3633 66.75 71.625 68.0117 71.625 69.5625C71.625 70.9693 70.5765 72.168 69.1862 72.3506C69.0456 72.3692 68.8691 72.3696 68.6614 72.3516L62.4902 71.8226L62.0098 77.4272L66 77.7692V80.8125H71.625V77.5163C74.9265 76.3459 77.25 73.1848 77.25 69.5625Z" fill="#F2F2F4"/>
<path d="M68.8125 47.0625V55.5576C68.9499 55.5585 69.0887 55.5679 69.228 55.5877L74.9773 56.409L75.7727 50.8404L71.625 50.2483V47.0625H68.8125Z" fill="#DFDFE1"/>
<path d="M68.8125 61.125V66.75C70.3633 66.75 71.625 68.0117 71.625 69.5625C71.625 70.9693 70.5765 72.168 69.1862 72.3506C69.081 72.3645 68.9557 72.3681 68.8125 72.3617V80.8125H71.625V77.5163C74.9265 76.3459 77.25 73.1848 77.25 69.5625C77.25 64.9101 73.4649 61.125 68.8125 61.125Z" fill="#DFDFE1"/>
</svg>
