<svg width="178" height="178" viewBox="0 0 178 178" fill="none" xmlns="http://www.w3.org/2000/svg">
<g id="Group 1">
<g id="Rectangle 18" filter="url(#filter0_d)">
<rect x="9" y="5" width="150" height="150" rx="70" fill="#232937"/>
</g>
<g id="envelope 1" clip-path="url(#clip0)">
<g id="Group">
<g id="Group_2">
<path id="Vector" d="M113.327 53.8235H54.848C51.6227 53.8235 49 56.4616 49 59.7059V100.882C49 104.127 51.6227 106.765 54.848 106.765H113.328C116.553 106.765 119.175 104.127 119.175 100.882V59.7059C119.175 56.4616 116.553 53.8235 113.327 53.8235ZM54.848 56.7646H113.328C113.543 56.7646 113.733 56.8436 113.935 56.8883C108.872 61.5492 92.0843 76.9975 86.2094 82.3218C85.7497 82.7383 85.0088 83.2352 84.0879 83.2352C83.1669 83.2352 82.426 82.7383 81.9648 82.3205C76.0905 76.997 59.3017 61.5478 54.2396 56.8886C54.4422 56.8439 54.6324 56.7646 54.848 56.7646ZM51.9239 100.882V59.7059C51.9239 59.4177 52.0103 59.1563 52.0876 58.893C55.9626 62.4605 67.6764 73.2395 75.2718 80.1871C67.7011 86.7285 55.9842 97.9024 52.0784 101.649C52.0095 101.399 51.9239 101.154 51.9239 100.882ZM113.327 103.824H54.848C54.6144 103.824 54.4068 103.742 54.1887 103.689C58.2248 99.819 70.0162 88.5809 77.4538 82.1807C78.4234 83.0653 79.3091 83.872 80.0073 84.5048C81.2123 85.5992 82.6228 86.1765 84.0877 86.1765C85.5526 86.1765 86.9631 85.5991 88.1667 84.5062C88.8651 83.8731 89.7515 83.0658 90.7216 82.1807C98.1597 88.5802 109.949 99.8175 113.987 103.689C113.769 103.742 113.561 103.824 113.327 103.824ZM116.252 100.882C116.252 101.154 116.166 101.399 116.097 101.649C112.19 97.9005 100.474 86.7278 92.9038 80.1872C100.499 73.2397 112.211 62.4616 116.088 58.8927C116.165 59.1561 116.252 59.4176 116.252 59.7057V100.882Z" fill="#F7A31D"/>
</g>
</g>
</g>
</g>
<defs>
<filter id="filter0_d" x="0" y="0" width="178" height="178" filterUnits="userSpaceOnUse" color-interpolation-filters="sRGB">
<feFlood flood-opacity="0" result="BackgroundImageFix"/>
<feColorMatrix in="SourceAlpha" type="matrix" values="0 0 0 0 0 0 0 0 0 0 0 0 0 0 0 0 0 0 127 0"/>
<feOffset dx="5" dy="9"/>
<feGaussianBlur stdDeviation="7"/>
<feColorMatrix type="matrix" values="0 0 0 0 0.0470588 0 0 0 0 0.0627451 0 0 0 0 0.105882 0 0 0 0.5 0"/>
<feBlend mode="normal" in2="BackgroundImageFix" result="effect1_dropShadow"/>
<feBlend mode="normal" in="SourceGraphic" in2="effect1_dropShadow" result="shape"/>
</filter>
<clipPath id="clip0">
<rect width="70.1754" height="70.5882" fill="white" transform="translate(49 45)"/>
</clipPath>
</defs>
</svg>
