<svg width="178" height="178" viewBox="0 0 178 178" fill="none" xmlns="http://www.w3.org/2000/svg">
<g id="Group 2">
<g id="Rectangle 17" filter="url(#filter0_d)">
<rect x="9" y="5" width="150" height="150" rx="70" fill="#232937"/>
</g>
<g id="call 1" clip-path="url(#clip0)">
<g id="Group">
<g id="Group_2">
<g id="Group_3">
<path id="Vector" d="M117.334 99.4557L103.13 89.9277C101.328 88.7283 98.9115 89.123 97.579 90.8346L93.4416 96.1856C92.9098 96.8908 91.9433 97.0954 91.1741 96.6656L90.3871 96.2291C87.7781 94.7987 84.5318 93.0178 77.9913 86.4365C71.4507 79.8551 69.6767 76.5873 68.2546 73.9678L67.8231 73.1761C67.3899 72.4025 67.5894 71.4261 68.2908 70.887L73.6069 66.7265C75.3079 65.386 75.7008 62.9563 74.5097 61.1426L65.0375 46.8553C63.8168 45.0084 61.3679 44.454 59.4783 45.5966L53.5388 49.1855C51.6725 50.2891 50.3034 52.0764 49.7183 54.1729C47.5795 62.0117 49.1885 75.5403 69.0008 95.4715C84.7611 111.323 96.4939 115.586 104.558 115.586C106.414 115.594 108.263 115.351 110.054 114.864C112.139 114.276 113.916 112.899 115.013 111.021L118.584 105.05C119.722 103.149 119.171 100.684 117.334 99.4557ZM116.569 103.843L113.006 109.818C112.219 111.173 110.94 112.17 109.439 112.598C102.245 114.585 89.6761 112.94 70.6555 93.8072C51.6348 74.6747 49.999 62.033 51.9742 54.7953C52.4012 53.2834 53.3931 51.996 54.7421 51.2029L60.6816 47.6187C61.5015 47.1224 62.5644 47.363 63.0941 48.1644L68.2396 55.935L72.5583 62.4505C73.0755 63.2372 72.9055 64.2916 72.1677 64.8737L66.8504 69.0342C65.2322 70.2788 64.7701 72.5309 65.7664 74.3182L66.1886 75.0898C67.6832 77.8471 69.5413 81.2771 76.3251 88.0997C83.1089 94.9222 86.5178 96.7914 89.2577 98.2946L90.0259 98.7204C91.8027 99.7225 94.0417 99.2578 95.279 97.6301L99.4152 92.2815C99.994 91.5397 101.042 91.3689 101.824 91.8886L116.027 101.417C116.824 101.949 117.063 103.019 116.569 103.843Z" fill="#0CC965"/>
<path id="Vector_2" d="M88.7641 56.7707C99.7385 56.783 108.632 65.7288 108.644 76.7678C108.644 77.4175 109.168 77.944 109.814 77.944C110.459 77.944 110.983 77.4175 110.983 76.7678C110.969 64.4301 101.03 54.4317 88.7641 54.4182C88.1182 54.4182 87.5947 54.9448 87.5947 55.5945C87.5947 56.2441 88.1182 56.7707 88.7641 56.7707Z" fill="#0CC965"/>
<path id="Vector_3" d="M88.7641 63.8286C95.865 63.837 101.619 69.6252 101.628 76.7679C101.628 77.4176 102.151 77.9441 102.797 77.9441C103.443 77.9441 103.966 77.4176 103.966 76.7679C103.957 68.3264 97.1561 61.4857 88.7641 61.4761C88.1182 61.4761 87.5947 62.0027 87.5947 62.6523C87.5947 63.302 88.1182 63.8286 88.7641 63.8286Z" fill="#0CC965"/>
<path id="Vector_4" d="M88.7641 70.8863C91.9917 70.8902 94.6073 73.5211 94.6112 76.7678C94.6112 77.4175 95.1349 77.9441 95.7806 77.9441C96.4263 77.9441 96.95 77.4175 96.95 76.7678C96.9448 72.2225 93.2829 68.5389 88.7641 68.5338C88.1182 68.5338 87.5947 69.0604 87.5947 69.7101C87.5947 70.3597 88.1182 70.8863 88.7641 70.8863Z" fill="#0CC965"/>
</g>
</g>
</g>
</g>
</g>
<defs>
<filter id="filter0_d" x="0" y="0" width="178" height="178" filterUnits="userSpaceOnUse" color-interpolation-filters="sRGB">
<feFlood flood-opacity="0" result="BackgroundImageFix"/>
<feColorMatrix in="SourceAlpha" type="matrix" values="0 0 0 0 0 0 0 0 0 0 0 0 0 0 0 0 0 0 127 0"/>
<feOffset dx="5" dy="9"/>
<feGaussianBlur stdDeviation="7"/>
<feColorMatrix type="matrix" values="0 0 0 0 0.0470588 0 0 0 0 0.0627451 0 0 0 0 0.105882 0 0 0 0.5 0"/>
<feBlend mode="normal" in2="BackgroundImageFix" result="effect1_dropShadow"/>
<feBlend mode="normal" in="SourceGraphic" in2="effect1_dropShadow" result="shape"/>
</filter>
<clipPath id="clip0">
<rect width="70.1754" height="70.5882" fill="white" transform="translate(49 45)"/>
</clipPath>
</defs>
</svg>
