<svg width="604" height="439" viewBox="0 0 604 439" fill="none" xmlns="http://www.w3.org/2000/svg">
<path opacity="0.1" d="M112.747 156.093V369.453L112.014 369.656C107.28 370.987 102.461 371.994 97.5894 372.672C86.5201 374.086 75.2773 373.181 64.5771 370.016L64.2053 369.909L63.5182 369.707L62.5775 369.414C61.0004 368.919 59.4365 368.377 57.8856 367.788L56.945 367.428C55.443 366.85 53.9729 366.229 52.5347 365.565L51.5941 365.137C50.0921 364.44 48.622 363.702 47.1838 362.926C46.6656 362.656 46.153 362.363 45.6461 362.087C44.1141 361.232 42.612 360.336 41.1401 359.398C39.578 358.404 38.0497 357.366 36.5552 356.286C35.8643 355.791 35.1808 355.282 34.5049 354.761C30.6086 351.783 26.9599 348.496 23.5947 344.93C23.4088 344.744 23.2342 344.553 23.0596 344.367C22.164 343.4 21.2854 342.415 20.4348 341.408C20.1194 341.036 19.804 340.665 19.4942 340.282C18.4841 339.052 17.5097 337.793 16.5709 336.506C16.4301 336.321 16.2949 336.129 16.1597 335.944C12.3112 330.626 9.1207 324.863 6.65765 318.781C6.57879 318.595 6.50557 318.404 6.43798 318.218C5.68697 316.286 5.00168 314.322 4.3821 312.326C4.12864 311.493 3.88644 310.638 3.6724 309.805C3.59918 309.558 3.53159 309.304 3.46963 309.057C0.360464 296.829 0.00561523 284.117 0.00561523 271.478C0.00561523 270.004 0.00561523 268.532 0.00561523 267.061C0.0957359 246.617 0.411157 225.825 3.4302 205.663C3.4302 205.522 3.46963 205.381 3.49216 205.246C4.50261 198.459 5.87705 191.73 7.60955 185.09H65.1291V156.093H76.5969V132.802H101.279V156.093H112.747Z" fill="#0CC965"/>
<path opacity="0.1" d="M283.565 301.832H199.082V312.754H283.565V301.832Z" fill="#0CC965"/>
<path opacity="0.1" d="M283.565 335.004H199.082V345.926H283.565V335.004Z" fill="#0CC965"/>
<path opacity="0.1" d="M283.565 368.176V379.093H221.134C218.745 377.27 216.387 375.407 214.059 373.505L213.102 372.723C211.271 371.215 209.457 369.673 207.616 368.176H283.565Z" fill="#0CC965"/>
<path opacity="0.1" d="M97.6232 161.506H81.9141V177.2H97.6232V161.506Z" fill="#0CC965"/>
<path opacity="0.1" d="M97.6232 197.97H81.9141V213.665H97.6232V197.97Z" fill="#0CC965"/>
<path opacity="0.1" d="M97.6232 234.429H81.9141V250.123H97.6232V234.429Z" fill="#0CC965"/>
<path opacity="0.1" d="M97.6232 270.893H81.9141V286.587H97.6232V270.893Z" fill="#0CC965"/>
<path opacity="0.1" d="M97.6232 307.357H81.9141V323.052H97.6232V307.357Z" fill="#0CC965"/>
<path opacity="0.1" d="M97.6232 343.816H81.9141V359.51H97.6232V343.816Z" fill="#0CC965"/>
<path opacity="0.1" d="M497.81 273.364H482.101V289.058H497.81V273.364Z" fill="#0CC965"/>
<path opacity="0.1" d="M3.43585 205.252V214.255H63.5182V205.252H3.43585ZM8.78677 213.693H4.37649V205.815H8.78677V213.693ZM14.1377 213.693H9.7274V205.815H14.1377V213.693ZM19.4886 213.693H15.0783V205.815H19.4886V213.693ZM24.8395 213.693H20.4292V205.815H24.8395V213.693ZM30.1904 213.693H25.7801V205.815H30.1904V213.693ZM35.5413 213.693H31.1311V205.815H35.5413V213.693ZM40.8923 213.693H36.482V205.815H40.8923V213.693ZM46.2432 213.693H41.8329V205.815H46.2432V213.693ZM51.5941 213.693H47.1838V205.815H51.5941V213.693ZM56.945 213.693H52.5347V205.815H56.945V213.693ZM62.5775 213.693H57.8856V205.815H62.5775V213.693Z" fill="#0CC965"/>
<path opacity="0.1" d="M3.43585 231.396V240.371H63.5182V231.396H3.43585ZM8.78677 239.809H4.37649V231.959H8.78677V239.809ZM14.1377 239.809H9.7274V231.959H14.1377V239.809ZM19.4886 239.809H15.0783V231.959H19.4886V239.809ZM24.8395 239.809H20.4292V231.959H24.8395V239.809ZM30.1904 239.809H25.7801V231.959H30.1904V239.809ZM35.5413 239.809H31.1311V231.959H35.5413V239.809ZM40.8923 239.809H36.482V231.959H40.8923V239.809ZM46.2432 239.809H41.8329V231.959H46.2432V239.809ZM51.5941 239.809H47.1838V231.959H51.5941V239.809ZM56.945 239.809H52.5347V231.959H56.945V239.809ZM62.5775 239.809H57.8856V231.959H62.5775V239.809Z" fill="#0CC965"/>
<path opacity="0.1" d="M3.43585 257.534V266.51H63.5182V257.534H3.43585ZM8.78677 265.947H4.37649V258.097H8.78677V265.947ZM14.1377 265.947H9.7274V258.097H14.1377V265.947ZM19.4886 265.947H15.0783V258.097H19.4886V265.947ZM24.8395 265.947H20.4292V258.097H24.8395V265.947ZM30.1904 265.947H25.7801V258.097H30.1904V265.947ZM35.5413 265.947H31.1311V258.097H35.5413V265.947ZM40.8923 265.947H36.482V258.097H40.8923V265.947ZM46.2432 265.947H41.8329V258.097H46.2432V265.947ZM51.5941 265.947H47.1838V258.097H51.5941V265.947ZM56.945 265.947H52.5347V258.097H56.945V265.947ZM62.5775 265.947H57.8856V258.097H62.5775V265.947Z" fill="#0CC965"/>
<path opacity="0.1" d="M3.43585 283.65V292.654H63.5182V283.65H3.43585ZM8.78677 292.091H4.37649V284.213H8.78677V292.091ZM14.1377 292.091H9.7274V284.213H14.1377V292.091ZM19.4886 292.091H15.0783V284.213H19.4886V292.091ZM24.8395 292.091H20.4292V284.213H24.8395V292.091ZM30.1904 292.091H25.7801V284.213H30.1904V292.091ZM35.5413 292.091H31.1311V284.213H35.5413V292.091ZM40.8923 292.091H36.482V284.213H40.8923V292.091ZM46.2432 292.091H41.8329V284.213H46.2432V292.091ZM51.5941 292.091H47.1838V284.213H51.5941V292.091ZM56.945 292.091H52.5347V284.213H56.945V292.091ZM62.5775 292.091H57.8856V284.213H62.5775V292.091Z" fill="#0CC965"/>
<path opacity="0.1" d="M3.66675 309.811C3.88078 310.655 4.12299 311.499 4.37645 312.332V310.374H8.78673V318.252H6.43233C6.49992 318.437 6.57314 318.629 6.652 318.814H63.5407V309.811H3.66675ZM14.1376 318.252H9.72736V310.374H14.1376V318.252ZM19.4886 318.252H15.0783V310.374H19.4886V318.252ZM24.8395 318.252H20.4292V310.374H24.8395V318.252ZM30.1904 318.252H25.7801V310.374H30.1904V318.252ZM35.5413 318.252H31.131V310.374H35.5413V318.252ZM40.8922 318.252H36.4819V310.374H40.8922V318.252ZM46.2431 318.252H41.8329V310.374H46.2431V318.252ZM51.594 318.252H47.1838V310.374H51.594V318.252ZM56.945 318.252H52.5347V310.374H56.945V318.252ZM62.5775 318.252H57.8856V310.374H62.5775V318.252Z" fill="#0CC965"/>
<path opacity="0.1" d="M16.1541 335.949C16.2893 336.135 16.4245 336.326 16.5653 336.512H19.4886V340.288C19.7984 340.665 20.1138 341.036 20.4292 341.413V336.518H24.8395V344.396H23.054C23.2286 344.581 23.4032 344.773 23.5891 344.958H63.5182V335.955L16.1541 335.949ZM30.1904 344.39H25.7801V336.512H30.1904V344.39ZM35.5413 344.39H31.131V336.512H35.5413V344.39ZM40.8922 344.39H36.482V336.512H40.8922V344.39ZM46.2431 344.39H41.8329V336.512H46.2431V344.39ZM51.5941 344.39H47.1838V336.512H51.5941V344.39ZM56.945 344.39H52.5347V336.512H56.945V344.39ZM62.5775 344.39H57.8856V336.512H62.5775V344.39Z" fill="#0CC965"/>
<path opacity="0.1" d="M45.6461 362.088C46.153 362.375 46.6656 362.65 47.1838 362.926V362.65H51.5941V365.137L52.5347 365.565V362.65H56.945V367.428L57.8856 367.788V362.65H62.5775V369.403L63.5182 369.695V362.088H45.6461Z" fill="#0CC965"/>
<path opacity="0.1" d="M230.912 127.31C230.912 127.31 217.484 126.499 219.083 135.897C219.001 136.374 219.073 136.866 219.287 137.3C219.502 137.735 219.848 138.091 220.278 138.316C220.278 138.316 220.278 137.619 221.652 137.855C222.134 137.934 222.623 137.957 223.111 137.923C223.77 137.879 224.396 137.622 224.896 137.191V137.191C224.896 137.191 228.67 135.632 230.14 129.47C230.14 129.47 231.222 128.126 231.182 127.782L228.929 128.75C228.929 128.75 229.706 130.382 229.098 131.738C229.098 131.738 229.025 128.812 228.586 128.88C228.501 128.88 227.408 129.442 227.408 129.442C227.408 129.442 228.743 132.29 227.735 134.355C227.735 134.355 228.118 130.855 226.997 129.651L225.364 130.59C225.364 130.59 226.924 133.528 225.865 135.925C225.865 135.925 226.141 132.25 225.031 130.821L223.584 131.946C223.584 131.946 225.048 134.839 224.147 136.831C224.147 136.831 224.029 132.549 223.263 132.222C222.713 132.685 222.223 133.214 221.804 133.798C221.804 133.798 222.807 135.897 222.187 137.005C222.187 137.005 221.804 134.158 221.488 134.141C221.488 134.141 220.232 136.032 220.103 137.326C220.161 136.125 220.534 134.961 221.184 133.95C220.459 134.087 219.789 134.433 219.258 134.946C219.258 134.946 219.455 133.612 221.511 133.494C221.511 133.494 222.553 132.065 222.835 131.975C222.835 131.975 220.801 131.806 219.568 132.352C219.568 132.352 220.655 131.091 223.206 131.665L224.631 130.5C224.631 130.5 221.956 130.134 220.824 130.54C220.824 130.54 222.125 129.414 225.014 130.236L226.569 129.307C225.375 129.046 224.152 128.94 222.93 128.992C222.93 128.992 224.361 128.221 227.025 129.06L228.152 128.559C228.152 128.559 226.462 128.232 225.995 128.182C225.527 128.131 225.476 127.996 225.476 127.996C226.534 127.82 227.62 127.941 228.614 128.345C228.614 128.345 230.951 127.456 230.912 127.31Z" fill="#0CC965"/>
<path opacity="0.1" d="M195.663 173.042C195.663 173.042 191.073 185.669 200.547 186.823C200.98 187.036 201.471 187.107 201.947 187.025C202.424 186.943 202.862 186.713 203.2 186.367C203.2 186.367 202.541 186.148 203.149 184.915C203.362 184.477 203.525 184.017 203.633 183.542C203.776 182.898 203.705 182.224 203.431 181.623V181.623C203.431 181.623 203.008 177.566 197.511 174.409C197.511 174.409 196.531 172.986 196.187 172.929L196.469 175.377C196.469 175.377 198.254 175.096 199.386 176.064C199.386 176.064 196.57 175.304 196.497 175.743C196.497 175.827 196.705 177.032 196.705 177.032C196.705 177.032 199.814 176.559 201.51 178.112C201.51 178.112 198.254 176.75 196.784 177.487L197.223 179.277C197.223 179.277 200.485 178.624 202.484 180.312C202.484 180.312 199.037 179.012 197.347 179.665L198.018 181.353C198.018 181.353 201.211 180.791 202.867 182.192C202.867 182.192 198.722 181.066 198.198 181.73C198.486 182.385 198.853 183.003 199.291 183.57C199.291 183.57 201.594 183.21 202.479 184.133C202.479 184.133 199.634 183.689 199.533 183.981C199.533 183.981 200.992 185.726 202.197 186.232C201.065 185.832 200.057 185.143 199.274 184.234C199.199 184.97 199.342 185.712 199.685 186.367C199.685 186.367 198.457 185.804 198.924 183.807C198.924 183.807 197.843 182.406 197.843 182.119C197.843 182.119 197.1 184.015 197.28 185.354C197.28 185.354 196.379 183.953 197.652 181.674L196.942 179.986C196.942 179.986 195.815 182.445 195.894 183.649C195.894 183.649 195.196 182.079 196.795 179.541L196.35 177.791C195.761 178.854 195.312 179.989 195.016 181.168C195.016 181.168 194.678 179.575 196.238 177.262L196.074 176.058C196.074 176.058 195.286 177.566 195.1 178.022C194.914 178.478 194.773 178.461 194.773 178.461C194.903 177.397 195.326 176.389 195.996 175.552C195.996 175.552 195.815 173.042 195.663 173.042Z" fill="#0CC965"/>
<path opacity="0.1" d="M284.674 162.395C284.674 162.395 280.089 175.045 289.558 176.171C289.993 176.384 290.484 176.454 290.962 176.371C291.439 176.288 291.878 176.056 292.216 175.709C292.216 175.709 291.552 175.49 292.166 174.263C292.38 173.825 292.541 173.362 292.644 172.884C292.789 172.24 292.719 171.567 292.447 170.965C292.447 170.965 292.025 166.908 286.527 163.751C286.527 163.751 285.542 162.333 285.198 162.277L285.485 164.719C285.485 164.719 287.271 164.444 288.403 165.411C288.403 165.411 285.587 164.652 285.508 165.085C285.508 165.175 285.716 166.374 285.716 166.374C285.716 166.374 288.825 165.907 290.526 167.454C290.526 167.454 287.271 166.098 285.795 166.83L286.24 168.625C286.24 168.625 289.501 167.966 291.501 169.66C291.501 169.66 288.048 168.354 286.358 169.007L287.029 170.695C287.029 170.695 290.222 170.133 291.878 171.534C291.878 171.534 287.738 170.408 287.209 171.078C287.506 171.736 287.885 172.354 288.335 172.918C288.335 172.918 290.634 172.552 291.523 173.481C291.523 173.481 288.679 173.036 288.578 173.335C288.578 173.335 290.031 175.073 291.236 175.585C290.105 175.187 289.099 174.498 288.319 173.588C288.244 174.323 288.385 175.064 288.724 175.72C288.724 175.72 287.502 175.158 287.969 173.166C287.969 173.166 286.888 171.759 286.882 171.478C286.882 171.478 286.144 173.38 286.319 174.713C286.319 174.713 285.418 173.318 286.691 171.033L285.981 169.345C285.981 169.345 284.855 171.804 284.933 173.003C284.933 173.003 284.235 171.438 285.835 168.9L285.384 167.145C284.795 168.208 284.346 169.342 284.049 170.521C284.049 170.521 283.717 168.928 285.277 166.616L285.114 165.411C285.114 165.411 284.325 166.92 284.134 167.375C283.942 167.831 283.807 167.814 283.807 167.814C283.94 166.75 284.365 165.743 285.035 164.905C285.035 164.905 284.832 162.401 284.674 162.395Z" fill="#0CC965"/>
<path opacity="0.1" d="M157.435 265.643C157.435 265.643 152.845 278.276 162.319 279.43C162.753 279.643 163.244 279.713 163.72 279.63C164.197 279.548 164.635 279.316 164.972 278.968C164.972 278.968 164.313 278.749 164.921 277.522C165.137 277.084 165.3 276.621 165.405 276.143C165.551 275.499 165.479 274.825 165.202 274.225V274.225C165.202 274.225 164.78 270.167 159.283 267.016C159.283 267.016 158.303 265.592 157.959 265.536L158.241 267.978C158.241 267.978 160.032 267.703 161.158 268.67C161.158 268.67 158.342 267.911 158.269 268.344C158.269 268.434 158.477 269.633 158.477 269.633C158.477 269.633 161.586 269.166 163.282 270.713C163.282 270.713 160.026 269.357 158.556 270.089L158.995 271.884C158.995 271.884 162.257 271.225 164.256 272.919C164.256 272.919 160.809 271.614 159.119 272.266L159.79 273.954C159.79 273.954 162.983 273.392 164.639 274.793C164.639 274.793 160.499 273.667 159.97 274.337C160.258 274.992 160.625 275.61 161.063 276.177C161.063 276.177 163.366 275.811 164.256 276.74C164.256 276.74 161.406 276.295 161.305 276.594C161.305 276.594 162.764 278.332 163.969 278.845C162.837 278.448 161.829 277.761 161.046 276.852C160.971 277.586 161.114 278.326 161.457 278.98C161.457 278.98 160.229 278.417 160.696 276.425C160.696 276.425 159.621 275.018 159.615 274.737C159.615 274.737 158.871 276.639 159.052 277.972C159.052 277.972 158.151 276.577 159.423 274.292L158.714 272.604C158.714 272.604 157.587 275.063 157.672 276.262C157.672 276.262 156.973 274.697 158.573 272.159L158.122 270.409C157.532 271.472 157.083 272.607 156.787 273.786C156.787 273.786 156.449 272.188 158.01 269.88L157.846 268.67C157.846 268.67 157.058 270.179 156.872 270.634C156.686 271.09 156.545 271.073 156.545 271.073C156.675 270.008 157.101 269.001 157.773 268.164C157.773 268.164 157.587 265.643 157.435 265.643Z" fill="#0CC965"/>
<path opacity="0.1" d="M139.22 146.577C139.22 146.577 134.635 159.205 144.103 160.358C144.538 160.571 145.029 160.641 145.506 160.56C145.983 160.478 146.423 160.248 146.762 159.902C146.762 159.902 146.097 159.683 146.711 158.451C146.923 158.011 147.084 157.548 147.19 157.072C147.334 156.43 147.265 155.758 146.992 155.159C146.992 155.159 146.57 151.101 141.067 147.945C141.067 147.945 140.087 146.521 139.743 146.465L140.031 148.912C140.031 148.912 141.816 148.631 142.943 149.599C142.943 149.599 140.126 148.839 140.053 149.278C140.053 149.363 140.262 150.567 140.262 150.567C140.262 150.567 143.371 150.094 145.072 151.647C145.072 151.647 141.816 150.285 140.34 151.023L140.78 152.812C140.78 152.812 144.041 152.154 146.046 153.847C146.046 153.847 142.593 152.542 140.904 153.2L141.574 154.889C141.574 154.889 144.768 154.326 146.424 155.733C146.424 155.733 142.284 154.607 141.754 155.271C142.043 155.926 142.41 156.544 142.847 157.111C142.847 157.111 145.151 156.751 146.041 157.674C146.041 157.674 143.196 157.229 143.095 157.522C143.095 157.522 144.548 159.266 145.753 159.773C144.622 159.371 143.615 158.683 142.83 157.775C142.755 158.511 142.898 159.253 143.241 159.908C143.241 159.908 142.013 159.345 142.486 157.348C142.486 157.348 141.405 155.946 141.399 155.659C141.399 155.659 140.661 157.556 140.836 158.895C140.836 158.895 139.929 157.494 141.208 155.215L140.492 153.527C140.492 153.527 139.366 155.986 139.45 157.19C139.45 157.19 138.752 155.62 140.352 153.082L139.901 151.332C139.312 152.395 138.863 153.53 138.566 154.708C138.566 154.708 138.234 153.116 139.788 150.803L139.631 149.599C139.631 149.599 138.837 151.107 138.651 151.557C138.465 152.007 138.324 152.002 138.324 152.002C138.454 150.937 138.879 149.929 139.552 149.093C139.552 149.093 139.377 146.577 139.22 146.577Z" fill="#0CC965"/>
<path opacity="0.1" d="M173.263 215.341C173.263 215.341 176.805 228.284 185.209 223.782C185.687 223.706 186.128 223.482 186.47 223.14C186.812 222.798 187.037 222.357 187.113 221.88C187.113 221.88 186.448 222.083 186.24 220.727C186.161 220.245 186.024 219.775 185.834 219.326C185.585 218.715 185.139 218.204 184.567 217.874C184.567 217.874 181.88 214.801 175.555 215.387C175.555 215.387 173.933 214.796 173.617 214.948L175.262 216.776C175.262 216.776 176.563 215.522 178.045 215.651C178.045 215.651 175.29 216.664 175.493 217.052C175.538 217.131 176.406 217.986 176.406 217.986C176.406 217.986 178.659 215.809 180.957 216.096C180.957 216.096 177.515 216.861 176.738 218.313L178.129 219.523C178.129 219.523 180.416 217.108 183.029 217.334C183.029 217.334 179.453 218.256 178.45 219.764L179.982 220.772C179.982 220.772 182.235 218.459 184.432 218.667C184.432 218.667 180.41 220.147 180.348 220.98C180.964 221.35 181.622 221.643 182.308 221.852C182.308 221.852 183.998 220.232 185.232 220.462C185.232 220.462 182.646 221.74 182.737 222.038C182.737 222.038 184.933 222.601 186.201 222.33C185.047 222.657 183.827 222.677 182.663 222.387C183.026 223.031 183.57 223.554 184.229 223.889C184.229 223.889 182.9 224.131 182.134 222.235C182.134 222.235 180.444 221.711 180.264 221.475C180.264 221.475 180.76 223.456 181.672 224.446C181.672 224.446 180.129 223.822 179.853 221.222L178.292 220.248C178.292 220.248 178.805 222.899 179.549 223.839C179.549 223.839 178.073 222.961 177.915 219.967L176.541 218.797C176.675 220.011 176.966 221.203 177.408 222.342C177.408 222.342 176.22 221.216 176.158 218.448L175.33 217.553C175.33 217.553 175.555 219.241 175.662 219.719C175.769 220.198 175.662 220.282 175.662 220.282C175.155 219.337 174.921 218.269 174.986 217.198C174.986 217.198 173.392 215.257 173.263 215.341Z" fill="#0CC965"/>
<path opacity="0.1" d="M269.376 226.9C269.376 226.9 272.919 239.842 281.317 235.34C281.796 235.267 282.239 235.042 282.582 234.701C282.926 234.359 283.151 233.917 283.227 233.439C283.227 233.439 282.556 233.641 282.348 232.313C282.273 231.831 282.139 231.361 281.948 230.912C281.694 230.302 281.247 229.792 280.675 229.46V229.46C280.675 229.46 277.988 226.388 271.663 226.978C271.663 226.978 270.041 226.382 269.731 226.534L271.37 228.363C271.37 228.363 272.671 227.108 274.153 227.237C274.153 227.237 271.398 228.25 271.607 228.638C271.646 228.717 272.519 229.573 272.519 229.573C272.519 229.573 274.772 227.395 277.07 227.682C277.07 227.682 273.623 228.447 272.846 229.899L274.243 231.109C274.243 231.109 276.496 228.695 279.138 228.92C279.138 228.92 275.566 229.843 274.564 231.351L276.096 232.358C276.096 232.358 278.349 230.045 280.54 230.254C280.54 230.254 276.518 231.733 276.462 232.566C277.075 232.936 277.732 233.229 278.417 233.439C278.417 233.439 280.106 231.818 281.34 232.049C281.34 232.049 278.76 233.326 278.845 233.624C278.845 233.624 281.041 234.187 282.314 233.917C281.158 234.243 279.937 234.263 278.771 233.973C279.136 234.616 279.68 235.138 280.337 235.476C280.337 235.476 279.008 235.718 278.242 233.821C278.242 233.821 276.552 233.298 276.378 233.061C276.378 233.061 276.868 235.042 277.78 236.033C277.78 236.033 276.237 235.408 275.961 232.808L274.401 231.823C274.401 231.823 274.913 234.474 275.662 235.414C275.662 235.414 274.187 234.536 274.029 231.542L272.649 230.372C272.783 231.587 273.076 232.779 273.522 233.917C273.522 233.917 272.328 232.791 272.266 230.023L271.438 229.128C271.438 229.128 271.663 230.816 271.77 231.295C271.877 231.773 271.77 231.857 271.77 231.857C271.263 230.912 271.029 229.844 271.094 228.774C271.094 228.774 269.506 226.815 269.376 226.9Z" fill="#0CC965"/>
<path d="M233.317 356.877C233.317 356.877 262.538 347.046 256.489 312.214L219.371 302.586L210.753 331.166L233.317 356.877Z" fill="#CED7E7"/>
<path opacity="0.1" d="M210.753 331.166L233.311 356.877C233.311 356.877 262.533 347.046 256.483 312.214L210.753 331.166Z" fill="black"/>
<path d="M87.9634 73.8345C87.9634 73.8345 91.9062 80.2438 97.2966 77.0419C102.687 73.8401 97.5162 64.9941 97.5162 64.9941C97.5162 64.9941 87.1918 63.5817 87.9634 73.8345Z" fill="#F7A31D"/>
<path opacity="0.1" d="M97.2965 77.042C96.6607 77.453 95.9476 77.7299 95.2008 77.8557C94.454 77.9815 93.6894 77.9535 92.9539 77.7735C90.9768 77.2727 89.456 75.7533 88.6393 74.7573C88.3957 74.4655 88.17 74.1592 87.9634 73.8401C87.6874 70.1824 88.8252 68.0047 90.4023 66.7217C92.5708 64.9604 95.573 64.8872 96.8685 64.9435C97.2684 64.9435 97.4993 64.9998 97.4993 64.9998L97.6063 65.1799C97.7584 65.4668 98.0907 66.1027 98.4456 66.9524C99.6509 69.7379 101.087 74.7855 97.2965 77.042Z" fill="black"/>
<path d="M236.189 310.576L256.467 312.214L294.205 312.523L264.47 349.1C264.47 349.1 255.036 349.612 253.093 350.94C251.149 352.268 223.865 351.559 223.865 351.559L219.461 332.809L236.189 310.576Z" fill="#FFA2A2"/>
<path opacity="0.05" d="M236.189 310.576L256.467 312.214L294.205 312.523L264.47 349.1C264.47 349.1 255.036 349.612 253.093 350.94C251.149 352.268 223.865 351.559 223.865 351.559L219.461 332.809L236.189 310.576Z" fill="black"/>
<path d="M215.681 212.235L220.396 220.226L221.421 234.159C221.421 234.159 224.705 246.038 227.166 249.521C229.627 253.004 230.653 262.227 230.653 262.227C230.653 262.227 231.678 270.831 232.906 272.671C234.133 274.511 235.778 287.865 235.778 287.865C235.778 287.865 246.649 309.58 256.489 312.242C256.489 312.242 207.683 328.223 233.317 356.905C233.317 356.905 215.067 361.407 210.758 356.292C206.45 351.176 195.173 275.367 195.173 275.367L198.66 211.442L215.681 212.235Z" fill="#CED7E7"/>
<path opacity="0.05" d="M215.681 212.235L220.396 220.226L221.421 234.159C221.421 234.159 224.705 246.038 227.166 249.521C229.627 253.004 230.653 262.227 230.653 262.227C230.653 262.227 231.678 270.831 232.906 272.671C234.133 274.511 235.778 287.865 235.778 287.865C235.778 287.865 246.649 309.58 256.489 312.242C256.489 312.242 207.683 328.223 233.317 356.905C233.317 356.905 215.067 361.407 210.758 356.292C206.45 351.176 195.173 275.367 195.173 275.367L198.66 211.442L215.681 212.235Z" fill="black"/>
<path d="M156.466 134.361C155.097 141.458 155.503 148.784 157.649 155.688L150.057 177.403C150.057 177.403 92.2272 145.238 97.1501 137.45C99.9382 133.033 100.293 121.345 100.068 112.06C99.9044 105.003 99.4031 99.3425 99.4031 99.3425C99.4031 99.3425 170.373 106.315 160.927 122.498C158.79 126.177 157.282 130.186 156.466 134.361V134.361Z" fill="#FFA2A2"/>
<path opacity="0.1" d="M160.927 122.498C158.79 126.177 157.282 130.186 156.466 134.361C145.934 137.727 134.56 137.345 124.278 133.279C113.996 129.213 105.441 121.715 100.068 112.06C99.9044 105.003 99.4031 99.3425 99.4031 99.3425C99.4031 99.3425 170.356 106.315 160.927 122.498Z" fill="black"/>
<path d="M189.636 87.666C189.641 95.1776 187.872 102.584 184.472 109.284C181.073 115.984 176.138 121.788 170.071 126.224C164.003 130.66 156.974 133.603 149.553 134.814C142.133 136.025 134.531 135.469 127.366 133.192C120.201 130.916 113.675 126.982 108.318 121.711C102.961 116.44 98.9248 109.981 96.5371 102.858C94.1494 95.7353 93.4777 88.1502 94.5767 80.7193C95.6756 73.2884 98.5141 66.2214 102.862 60.0928C103.537 59.1436 104.249 58.217 104.996 57.3129C109.254 52.1428 114.553 47.9249 120.548 44.9331V44.9331C123.8 43.3074 127.231 42.0648 130.771 41.2304C137.162 39.7176 143.797 39.535 150.262 40.6939C156.727 41.8527 162.885 44.3283 168.351 47.9665C173.818 51.6047 178.476 56.3278 182.037 61.8419C185.599 67.3561 187.986 73.5433 189.051 80.0187C189.449 82.5482 189.644 85.1054 189.636 87.666Z" fill="#FFA2A2"/>
<path d="M208.5 283.948C207.784 287.764 208.68 294.736 210.037 301.831C210.094 302.141 210.156 302.45 210.218 302.76C210.28 303.069 210.37 303.548 210.449 303.936C211.074 306.986 211.755 310.008 212.42 312.754C213.085 315.5 213.682 317.852 214.189 319.788C214.955 322.686 215.479 324.509 215.479 324.509C215.479 324.509 215.546 326.299 215.636 329.146C215.687 330.789 215.743 332.792 215.8 335.004C215.8 335.645 215.839 336.298 215.856 336.973C215.884 338.149 215.912 339.37 215.94 340.62C215.94 341.025 215.94 341.43 215.969 341.841C215.969 343.186 216.019 344.559 216.042 345.926C216.07 347.806 216.092 349.685 216.104 351.508C216.104 352.206 216.104 352.893 216.104 353.568C216.104 355.312 216.104 356.984 216.104 358.52C216.042 362.881 215.867 366.173 215.495 367.124C215.366 367.45 215.248 367.805 215.135 368.176C214.647 369.923 214.293 371.704 214.076 373.505L213.118 372.723C211.288 371.215 209.474 369.673 207.632 368.176C204.571 365.614 201.321 363.285 197.911 361.21C197.68 361.075 197.449 360.94 197.212 360.81C196.581 360.444 195.939 360.101 195.286 359.775C193.94 359.097 192.56 358.488 191.152 357.951C184.646 355.476 177.679 354.575 170.615 354.727C167.799 355.802 165.968 356.573 165.968 356.573L162.386 357.653L161.789 357.833C157.908 359.015 152.45 360.692 150.485 361.39C147.308 362.515 119.725 368.249 119.725 368.249C117.205 368.936 114.631 369.407 112.031 369.656C107.297 370.987 102.477 371.994 97.6063 372.672C86.5369 374.086 75.2942 373.181 64.594 370.016C64.2746 370.035 63.9541 370.026 63.6364 369.988C63.8336 369.988 64.0251 369.943 64.1997 369.909L63.5125 369.707L62.5719 369.414C60.9948 368.919 59.4308 368.377 57.88 367.788L56.9393 367.428C55.4373 366.85 53.9672 366.229 52.5291 365.565L51.5884 365.137C50.0864 364.44 48.6163 363.702 47.1781 362.926C46.6599 362.656 46.1474 362.363 45.6405 362.087C44.1084 361.232 42.6064 360.336 41.1344 359.398C40.8866 357.276 40.757 355.858 40.757 355.858L38.5603 344.93L38.4477 344.367L36.8706 336.489L36.7579 335.927L33.3277 318.786L33.2151 318.224L31.638 310.345L31.5253 309.783L28.05 292.654L27.9374 292.091L26.3603 284.213L26.2476 283.65L22.8005 266.487L22.6878 265.924L21.1107 258.074L20.9981 257.512L20.3729 254.417L19.4322 249.729C19.4322 249.729 16.4301 245.441 13.0506 240.371L12.6732 239.809C11.71 238.385 10.7187 236.905 9.75553 235.453C9.43448 234.975 9.12469 234.502 8.8149 234.035C8.34552 233.326 7.89116 232.634 7.45182 231.959L7.14766 231.492L7.08571 231.396C2.23046 223.889 5.48043 220.625 5.48043 220.625C5.48043 220.625 7.51941 217.868 10.1498 214.222C10.2794 214.036 10.4145 213.85 10.5554 213.659C11.6819 212.083 12.921 210.361 14.1376 208.64L15.0783 207.3C15.4331 206.799 15.7823 206.299 16.1203 205.803C16.2555 205.618 16.385 205.426 16.5089 205.241C19.1056 201.493 21.2459 198.224 21.6853 197.064C22.3724 195.236 26.7545 189.828 31.1198 185.084C34.5612 181.336 37.9858 178.005 39.5235 177.206C43.0101 175.366 44.4464 169.418 44.4464 169.418C44.4464 169.418 52.0334 166.762 53.0585 164.714C54.0836 162.665 68.441 153.459 68.441 153.459C68.441 153.459 74.2481 149.723 76.5969 147.472C76.9294 147.178 77.2194 146.839 77.4587 146.465C78.2754 145.002 83.6094 143.797 85.778 143.364C86.3412 143.252 86.6904 143.19 86.6904 143.19C87.5659 141.6 88.6725 140.15 89.9742 138.885C90.8585 138.103 91.9625 135.407 92.8919 132.796C93.9001 129.949 94.683 127.208 94.683 127.208C96.3277 121.677 99.6058 123.314 99.6058 123.314C99.6014 124.07 99.6731 124.824 99.8199 125.565C101.189 132.318 108.624 135.131 112.527 138.288C116.836 141.766 123.6 150.786 128.934 152.626C133.35 154.151 138.47 159.902 140.093 161.821L140.216 161.968C140.487 162.283 140.622 162.463 140.622 162.463C140.622 162.463 143.647 162.305 145.489 162.271H146.159C146.533 162.234 146.889 162.089 147.184 161.855C149.015 160.611 151.741 156.965 152.929 156.127C154.36 155.097 155.802 138.502 155.802 138.502L155.875 138.468C160.984 136.077 166.464 160.015 166.464 160.015C166.464 160.015 176.101 162.885 176.924 164.933C177.081 165.338 177.808 166.059 178.901 166.931C183.876 170.729 189.172 174.09 194.728 176.975C194.852 177.037 194.97 177.099 195.094 177.15C195.206 177.21 195.321 177.264 195.438 177.313C195.646 177.414 195.849 177.504 196.041 177.589C196.345 177.724 196.626 177.836 196.885 177.926L197.223 178.044C198.031 178.313 198.791 178.706 199.476 179.209C199.679 179.356 199.882 179.508 200.079 179.671C200.846 180.308 201.551 181.017 202.186 181.787C202.281 181.899 202.372 182.017 202.462 182.13C202.89 182.664 203.273 183.193 203.588 183.683C204.106 184.438 204.578 185.224 205.002 186.035C205.002 186.035 213.406 200.379 216.076 202.011C218.745 203.643 220.384 220.248 220.384 220.248L211.372 253.623C211.372 253.623 210.95 262.064 210.161 270.674C209.722 275.502 209.164 280.414 208.5 283.948Z" fill="#CED7E7"/>
<path d="M140.622 163.476C140.622 163.476 134.578 166.751 129.858 167.06C129.24 167.089 128.621 167.053 128.011 166.953C123.065 166.205 115.811 162.142 115.811 162.142L124.321 152.818L134.674 157.944L138.482 161.484L140.622 163.476Z" fill="#00DFC0" fill-opacity="0.47"/>
<path opacity="0.1" d="M189.028 80.0187C188.814 80.3213 188.571 80.6021 188.301 80.8572C185.339 83.6708 180.078 82.506 176.039 81.8532C172.53 81.28 169.102 80.2901 165.828 78.9046C162.978 77.6891 159.559 76.2035 156.996 77.9479C156.01 78.6119 155.334 79.6755 154.309 80.2607C153.284 80.8459 151.977 80.8853 150.766 80.9022C146.823 80.9022 142.881 80.9472 139.034 80.0581C133.294 78.7189 127.357 75.3482 121.899 77.5709C117.63 79.3041 115.315 83.9465 114.16 88.4089C113.597 90.5979 113.18 92.9106 111.907 94.7676C110.634 96.6246 108.173 97.9413 106.078 97.0691C102.985 95.7805 102.529 90.536 98.8004 90.2715C94.7055 89.9845 94.7562 94.2105 95.9503 97.2661C97.719 101.768 100.034 106.27 100.135 110.963C95.7344 103.088 93.6549 94.1292 94.1374 85.1229C94.6198 76.1167 97.6445 67.431 102.861 60.0703C103.769 59.5086 104.48 58.6788 104.895 57.6957C104.937 57.5627 104.97 57.4274 104.996 57.2905C105.306 55.7205 104.433 54.0718 104.382 52.4286C104.185 48.4164 108.533 45.6197 112.521 45.1133C115.174 44.7756 117.889 45.0345 120.548 44.9501C121.887 44.9206 123.219 44.7432 124.519 44.4211C126.761 43.7497 128.862 42.672 130.714 41.2417C137.106 39.729 143.741 39.5464 150.206 40.7052C156.671 41.8641 162.828 44.3396 168.295 47.9778C173.761 51.6161 178.42 56.3392 181.981 61.8533C185.542 67.3674 187.929 73.5546 188.994 80.03L189.028 80.0187Z" fill="black"/>
<path d="M189.991 76.7043C189.71 77.8173 189.125 78.8304 188.302 79.6304C185.339 82.444 180.078 81.2735 176.039 80.6208C172.53 80.0601 169.101 79.0776 165.828 77.6946C162.978 76.4848 159.559 74.9992 156.996 76.7436C156.01 77.4076 155.334 78.4712 154.309 79.0564C153.284 79.6416 151.977 79.681 150.766 79.6923C146.823 79.7204 142.881 79.7429 139.034 78.8538C133.294 77.5089 127.357 74.1439 121.899 76.361C117.63 78.0942 115.315 82.7422 114.16 87.2046C113.597 89.3936 113.18 91.7064 111.907 93.5577C110.634 95.409 108.173 96.7371 106.078 95.8648C102.985 94.5762 102.529 89.3317 98.8004 89.0672C94.7056 88.7802 94.7562 93.0062 95.9503 96.0618C98.0456 101.391 100.896 106.692 99.9607 112.341C99.0313 112.341 97.4937 112.308 96.5812 112.285C97.2909 111.075 95.9391 109.635 94.5929 109.224C93.2467 108.813 91.6752 108.819 90.6501 107.84C89.625 106.86 89.6194 105.347 89.7264 103.991C89.96 101.092 90.6698 98.2516 91.8273 95.5835C92.5652 93.8953 93.5171 92.0665 92.9538 90.2995C92.6157 89.4986 92.2087 88.7286 91.7372 87.998C90.5656 85.7471 90.8416 82.9335 91.8442 80.6095C92.2723 79.6191 92.5821 78.685 92.9369 77.7959C93.3851 76.5321 94.0336 75.3484 94.8576 74.2902C96.1475 72.6864 97.4092 70.2724 95.9841 68.7812C95.6237 68.4041 96.3446 68.1453 96.1137 67.6557C96.0729 67.5721 96.0444 67.483 96.0292 67.3912C95.963 66.7985 96.1065 66.2013 96.4347 65.7031C96.5013 65.5736 96.5746 65.4478 96.6544 65.3261C96.7192 65.1975 96.7926 65.0734 96.8741 64.9547C98.1213 62.8742 99.7789 61.0688 101.746 59.6482C102.968 58.7647 104.399 57.915 104.884 56.4857C105.447 54.7976 104.455 53.0025 104.371 51.2187C104.174 47.2065 108.522 44.4098 112.51 43.9033C116.498 43.3969 120.632 44.2353 124.519 43.2056C130.033 41.7537 133.908 36.8918 138.915 34.1627C141.655 32.6993 144.692 31.8808 147.797 31.7697C150.901 31.6585 153.99 32.2576 156.827 33.5212C162.673 36.1884 167.084 41.5793 173.189 43.6051C175.352 44.3254 177.695 44.6124 179.644 45.8053C181.897 47.1896 183.266 49.6093 184.438 51.9952C186.223 55.6135 186.584 59.2487 187.817 63.0808C188.797 66.1195 190.155 70.0923 190.267 73.5924C190.331 74.6376 190.238 75.6864 189.991 76.7043V76.7043Z" fill="#896363"/>
<g opacity="0.1">
<path opacity="0.1" d="M96.7163 69.6534C96.8065 69.2933 96.8153 68.9176 96.7423 68.5536C96.6692 68.1896 96.516 67.8464 96.2939 67.5488C96.4403 67.9877 95.8039 68.241 96.1531 68.6067C96.4313 68.8989 96.6258 69.2604 96.7163 69.6534Z" fill="black"/>
<path opacity="0.1" d="M96.277 66.2601C96.2106 66.4565 96.1709 66.6609 96.1588 66.8679C96.2658 66.6878 96.4122 66.5021 96.277 66.2601Z" fill="black"/>
<path opacity="0.1" d="M188.459 78.2574C185.491 81.071 180.236 79.9061 176.186 79.2478C172.679 78.6836 169.254 77.6954 165.985 76.3047C163.13 75.0893 159.716 73.6037 157.148 75.3481C156.168 76.0121 155.492 77.0757 154.461 77.6609C153.43 78.2461 152.129 78.2855 150.918 78.2968C146.976 78.2968 143.033 78.3474 139.18 77.4527C133.446 76.1134 127.509 72.754 122.052 74.9655C117.782 76.7043 115.467 81.3467 114.312 85.8091C113.749 87.9981 113.338 90.3108 112.059 92.1678C110.781 94.0248 108.319 95.3415 106.23 94.475C103.137 93.1807 102.681 87.9418 98.9525 87.6773C96.0405 87.4691 95.2294 89.5512 95.4265 91.8639C95.5955 90.097 96.553 88.7352 98.9525 88.904C102.681 89.1685 103.137 94.4131 106.23 95.7017C108.319 96.5739 110.786 95.2628 112.059 93.3945C113.332 91.5263 113.749 89.2248 114.312 87.0414C115.467 82.5791 117.782 77.931 122.052 76.1978C127.509 73.9807 133.446 77.3233 139.18 78.685C143.01 79.5798 146.987 79.5516 150.918 79.5235C152.129 79.5235 153.408 79.4897 154.461 78.8933C155.514 78.2968 156.151 77.2445 157.148 76.5748C159.716 74.836 163.13 76.3216 165.985 77.5315C169.254 78.9214 172.679 79.9114 176.186 80.4801C180.236 81.1329 185.491 82.309 188.459 79.4841C190.07 77.9479 190.555 75.7251 190.448 73.2942C190.357 75.2243 189.794 76.9744 188.459 78.2574Z" fill="black"/>
<path opacity="0.1" d="M104.568 50.2002C104.537 50.4804 104.526 50.7625 104.534 51.0443C104.591 52.2147 105.036 53.3852 105.176 54.5275C105.385 53.1263 104.737 51.6633 104.568 50.2002Z" fill="black"/>
<path opacity="0.1" d="M93.1228 90.1251C93.1692 90.2934 93.205 90.4644 93.2298 90.6372C93.3211 90.0567 93.2846 89.4633 93.1228 88.8984C92.787 88.0946 92.3798 87.3225 91.9062 86.5913C91.483 85.7588 91.2321 84.8498 91.1683 83.9183C91.0538 85.2629 91.3089 86.6132 91.9062 87.8236C92.3809 88.5522 92.7881 89.3226 93.1228 90.1251Z" fill="black"/>
<path opacity="0.1" d="M100.113 110.934L96.8178 110.884C96.8946 111.083 96.9254 111.296 96.9079 111.509C96.8903 111.721 96.8248 111.927 96.7164 112.111C97.6457 112.111 99.1891 112.144 100.096 112.167C100.253 111.204 100.308 110.227 100.259 109.252C100.246 109.815 100.198 110.377 100.113 110.934Z" fill="black"/>
<path opacity="0.1" d="M94.7225 107.823C93.3763 107.418 91.8104 107.412 90.8078 106.427C90.2176 105.782 89.8849 104.943 89.8728 104.069C89.7883 105.364 89.8728 106.759 90.8078 107.659C91.8104 108.644 93.3763 108.65 94.7225 109.055C95.1604 109.182 95.5678 109.398 95.9194 109.688C96.271 109.978 96.5595 110.337 96.7671 110.743C97.336 109.578 96.0292 108.211 94.7225 107.823Z" fill="black"/>
</g>
<path opacity="0.1" d="M197.195 360.81C196.564 360.444 195.922 360.101 195.269 359.775C193.923 359.097 192.543 358.488 191.135 357.951C184.629 355.476 177.662 354.575 170.598 354.727C167.782 355.802 165.952 356.573 165.952 356.573L162.369 357.653L161.772 357.833C161.733 357.439 161.688 357.046 161.648 356.646C161.609 356.246 161.564 355.864 161.519 355.47C160.257 343.535 159.266 331.273 159.266 331.273V320.683V319.45L159.198 288.247L158.635 277.961L158.37 273.409L158.319 272.542L158.218 270.764L158.162 269.706C158.037 269.371 157.932 269.029 157.846 268.682C157.807 268.541 157.768 268.383 157.734 268.22C157.593 267.658 157.441 266.932 157.283 266.144C156.252 260.967 154.962 252.239 154.884 250.466C154.782 248.103 152.732 233.967 152.732 233.967C152.524 226.185 145.973 211.532 144.323 208.769C142.672 206.006 140.83 189.406 141.45 188.511C141.771 188.033 141.979 185.202 142.109 182.591C142.109 182.293 142.137 182 142.148 181.713C142.233 179.671 142.272 177.966 142.272 177.966L148.716 176.694L150.445 176.356L150.58 176.328L150.637 176.441C150.823 176.784 151.403 177.881 152.084 179.322C152.163 179.474 152.236 179.637 152.315 179.8C152.349 179.879 152.388 179.958 152.428 180.036C153.69 182.794 155.148 186.423 155.086 188.511C154.985 192.202 159.193 201.116 159.193 201.116C159.598 203.164 168.52 223.546 168.52 223.546C168.52 223.546 175.803 243.522 175.392 246.803C174.981 250.084 178.878 271.799 178.878 271.799L182.877 294.133C184.821 298.534 187.383 308.674 187.383 308.674L188.358 314.425L188.544 315.522L191.14 330.868L192.413 338.386C192.413 338.386 192.948 342.381 193.759 346.827C193.827 347.226 193.906 347.631 193.985 348.036C194.484 350.963 195.194 353.849 196.108 356.674C196.562 358.027 196.925 359.409 197.195 360.81V360.81Z" fill="black"/>
<path d="M197.894 361.21C197.663 361.075 197.432 360.94 197.195 360.81C196.564 360.444 195.922 360.101 195.269 359.775C193.923 359.097 192.543 358.488 191.135 357.951C184.629 355.475 177.662 354.575 170.598 354.727C167.782 355.802 165.952 356.573 165.952 356.573L162.369 357.653C162.324 357.259 162.285 356.865 162.24 356.466C162.195 356.066 162.161 355.746 162.127 355.385C160.865 343.478 159.874 331.273 159.874 331.273V320.581V319.349L159.806 288.225L159.243 278.4L159.131 276.363L159.052 274.984L158.95 273.161L158.849 271.31L158.776 269.976V269.683C158.776 269.655 158.776 269.621 158.736 269.588C158.629 269.284 158.5 268.822 158.359 268.237L158.291 267.956C158.263 267.826 158.229 267.686 158.201 267.545C157.142 262.745 155.588 252.397 155.503 250.455C155.402 248.092 153.352 233.956 153.352 233.956C153.143 226.174 146.593 211.521 144.942 208.758C143.292 205.995 141.456 189.394 142.07 188.5C142.424 187.937 142.633 184.521 142.768 181.702C142.768 181.477 142.768 181.258 142.768 181.049C142.841 179.311 142.869 177.954 142.869 177.954L148.862 176.773L150.383 176.474L150.62 176.429L151.183 176.317C151.183 176.317 151.921 177.679 152.805 179.553L152.918 179.789C154.208 182.569 155.734 186.35 155.689 188.5C155.588 192.191 159.795 201.105 159.795 201.105C160.201 203.153 169.123 223.535 169.123 223.535C169.123 223.535 176.406 243.511 175.994 246.792C175.583 250.073 179.481 271.788 179.481 271.788L183.48 294.122C185.423 298.523 187.986 308.663 187.986 308.663L188.893 314.02L189.079 315.106L191.123 327.216L193.01 338.374C193.01 338.374 193.574 342.353 194.351 346.815C194.424 347.22 194.497 347.626 194.576 348.036C195.075 350.976 195.785 353.876 196.7 356.714C197.199 358.184 197.598 359.686 197.894 361.21V361.21Z" fill="#00DFC0" fill-opacity="0.47"/>
<path d="M192.813 72.2026C192.813 72.2026 190.662 74.9711 188.718 74.9711C186.775 74.9711 179.211 74.6616 175.268 73.4349C171.325 72.2082 151.994 71.2797 151.994 71.2797C151.994 71.2797 124.62 71.381 123.696 70.4581C122.772 69.5353 106.675 64.6171 105.036 64.9266C104.692 64.9941 103.853 65.1404 102.732 65.3261L101.448 65.5343C99.5045 65.8438 97.0768 66.204 94.8576 66.4684C92.1146 66.7892 89.7038 66.9524 88.9378 66.671V64.3132C88.9378 64.3132 92.1146 59.6989 92.3173 58.3765C92.5201 57.0541 95.1899 37.8823 102.163 31.0227C105.044 25.5211 109.706 21.1571 115.388 18.6429C124.823 14.5407 134.257 11.0631 134.257 11.0631L135.908 10.8267L141.23 10.0389C141.392 9.87802 141.567 9.73118 141.754 9.60001C143.23 8.47458 147.702 6.02675 153.532 11.2882L154.563 12.9313C154.563 12.9313 172.502 17.1292 180.805 31.7768C189.107 46.4244 189.524 60.7681 190.138 67.3238C190.138 67.3238 189.727 69.1695 190.549 69.8841C190.847 70.1469 191.13 70.4249 191.399 70.717C191.473 70.7901 191.546 70.8633 191.613 70.9421C191.85 71.1784 192.07 71.426 192.25 71.6286C192.271 71.6444 192.29 71.6634 192.306 71.6849C192.35 71.7382 192.397 71.7889 192.447 71.8368L192.813 72.2026Z" fill="#F7A31D"/>
<path opacity="0.05" d="M192.813 72.2026C192.813 72.2026 190.662 74.9712 188.718 74.9712C186.775 74.9712 179.211 74.6617 175.268 73.4349C171.325 72.2082 151.994 71.2797 151.994 71.2797C151.994 71.2797 124.62 71.381 123.696 70.4581C122.773 69.5353 106.675 64.6171 105.036 64.9266C104.692 64.9941 103.853 65.1404 102.732 65.3261L102.439 63.5254L102.366 63.0809C102.366 63.0809 133.435 56.4239 154.146 59.9128C174.857 63.4016 190.138 67.2844 190.138 67.2844C190.138 67.2844 189.727 69.1301 190.549 69.8448C190.847 70.1075 191.131 70.3855 191.399 70.6776C191.473 70.7508 191.546 70.8239 191.613 70.9027C191.85 71.139 192.07 71.3866 192.25 71.5892C192.271 71.605 192.29 71.624 192.306 71.6455C192.35 71.6987 192.397 71.7494 192.447 71.7974L192.813 72.2026Z" fill="black"/>
<path opacity="0.1" d="M189.991 76.7043C186.156 77.0026 179.087 76.0685 175.994 75.6127C175.116 75.4832 174.254 75.3257 173.387 75.1344C170.069 74.4141 159.868 72.3939 153.673 73.328C146.187 74.4535 125.065 72.4052 125.065 72.4052C125.065 72.4052 112.043 69.7435 106.81 67.5939C104.889 66.8005 101.679 66.5529 98.485 66.9468C97.6706 67.0483 96.8621 67.1929 96.063 67.3801C91.7034 68.4099 88.0254 70.7564 88.6619 74.7573C88.4182 74.4655 88.1925 74.1592 87.9859 73.8401C87.71 70.1824 88.8477 68.0047 90.4248 66.7217L90.7966 66.5698C92.7232 66.0228 94.6838 65.6036 96.6657 65.3149C96.9755 65.2643 97.2965 65.2192 97.6232 65.1798C103.228 64.4258 111.333 64.257 118.171 67.6952C118.171 67.6952 124.524 70.672 128.833 70.672C133.142 70.672 168.205 70.9815 176.411 73.3337C178.045 73.8052 179.711 74.1569 181.396 74.3859C184.388 74.7713 187.428 74.4849 190.295 73.5475C190.354 74.6091 190.252 75.6734 189.991 76.7043V76.7043Z" fill="black"/>
<path opacity="0.1" d="M192.813 72.2025C192.813 72.2025 190.662 74.9711 188.718 74.9711C186.775 74.9711 179.211 74.6616 175.268 73.4348C171.325 72.2081 151.994 71.2796 151.994 71.2796C151.994 71.2796 124.62 71.3809 123.696 70.4581C122.772 69.5352 106.675 64.617 105.036 64.9265C104.692 64.9941 103.853 65.1404 102.732 65.3261L101.448 65.5343C99.2171 65.5229 96.9969 65.8376 94.8576 66.4684C92.1146 66.7891 89.7038 66.9523 88.9378 66.671V66.2039C89.5284 65.8615 90.1441 65.5643 90.7796 65.3148C94.5805 64.2515 98.4944 63.6432 102.439 63.5028C107.356 63.3228 113.107 63.8968 118.159 66.4402C118.159 66.4402 124.513 69.417 128.822 69.417C133.131 69.417 168.193 69.7209 176.4 72.0787C178.034 72.5458 179.7 72.8956 181.385 73.1254C185.081 73.5907 188.834 73.0522 192.25 71.5666C192.271 71.5824 192.29 71.6014 192.306 71.6229C192.35 71.6761 192.397 71.7268 192.447 71.7748L192.813 72.2025Z" fill="black"/>
<path d="M88.7407 74.6617C88.7407 74.6617 81.869 69.434 90.791 65.9508C90.791 65.9508 106.376 61.1395 118.171 67.0762C118.171 67.0762 124.524 70.0417 128.833 70.0417C133.142 70.0417 168.205 70.3512 176.411 72.709C178.046 73.1768 179.712 73.5266 181.396 73.7557C185.762 74.2846 190.185 73.4449 194.052 71.3529C194.616 71.0434 195.123 70.8858 195.275 71.0659C195.787 71.6849 195.382 75.2694 190.87 75.9841C187.35 76.5468 179.351 75.4832 175.989 74.9937C175.116 74.8642 174.248 74.7011 173.387 74.5154C170.069 73.7951 159.868 71.7749 153.645 72.709C146.164 73.8345 125.037 71.7862 125.037 71.7862C125.037 71.7862 112.02 69.1245 106.787 66.9693C101.555 64.8141 86.7919 66.6711 88.7407 74.6617Z" fill="#F7A31D"/>
<path opacity="0.1" d="M146.671 19.7346C146.108 18.9243 138.87 13.1339 135.919 10.793L141.242 10.0052C141.403 9.84429 141.579 9.69745 141.765 9.56628C145.635 13.6235 146.671 19.7346 146.671 19.7346Z" fill="black"/>
<path opacity="0.1" d="M123.195 50.7911L120.835 54.2743L129.858 53.9704L130.061 50.0764L123.195 50.7911Z" fill="black"/>
<path opacity="0.1" d="M178.253 54.9946L179.278 58.1684L185.023 59.0912L182.562 55.2985L178.253 54.9946Z" fill="black"/>
<path opacity="0.1" d="M79.616 161.54C80.2299 162.564 100.428 189.113 105.762 188.376C111.096 187.639 79.616 161.54 79.616 161.54Z" fill="black"/>
<path opacity="0.1" d="M147.291 185.804C147.291 185.804 152.214 190.52 151.493 192.36C150.772 194.2 147.291 185.804 147.291 185.804Z" fill="black"/>
<path opacity="0.1" d="M93.5622 218.178C93.5622 218.178 89.2533 238.357 91.5119 238.998C93.7706 239.64 93.5622 218.178 93.5622 218.178Z" fill="black"/>
<path opacity="0.1" d="M148.93 296.542C149.645 298.59 155.593 311.91 156.928 312.624C158.263 313.339 148.93 296.542 148.93 296.542Z" fill="black"/>
<path opacity="0.1" d="M218.041 241.84C217.833 242.555 212.707 246.758 213.834 248.294C214.96 249.831 218.041 241.84 218.041 241.84Z" fill="black"/>
<path opacity="0.1" d="M178.253 279.227C178.152 279.745 177.127 290.481 179.075 292.547C181.024 294.612 178.253 279.227 178.253 279.227Z" fill="black"/>
<path opacity="0.1" d="M230.793 335.004C229.306 335.831 227.769 336.63 226.203 337.395C224.513 338.217 222.823 338.999 221.1 339.736C220.413 340.034 219.725 340.327 219.044 340.608C218.008 341.036 216.982 341.447 215.969 341.841C212.888 343.045 209.919 344.092 207.278 344.975C206.252 345.318 205.272 345.634 204.36 345.926C199.764 347.384 196.711 348.177 196.711 348.177C196.014 348.028 195.3 347.969 194.587 348.003C194.39 348.003 194.188 348.003 193.979 348.003C193.025 348.072 192.076 348.192 191.135 348.363C184.843 349.488 175.955 352.645 170.598 354.71C167.782 355.785 165.952 356.556 165.952 356.556L162.369 357.636L161.772 357.816C157.891 358.998 152.433 360.675 150.468 361.373C147.291 362.498 119.708 368.232 119.708 368.232C117.189 368.92 114.615 369.39 112.014 369.639C105.607 370.226 99.1671 370.373 92.7398 370.078C86.2849 370.495 75.8422 369.076 69.7647 368.12L68.7959 367.968C66.4471 367.585 64.9545 367.309 64.9545 367.309L65.743 366.223L81.9141 343.934L82.0098 343.799L97.0769 323.04L97.6401 322.286L99.0088 320.401C99.0088 320.401 99.8312 319.276 102.997 319.203C103.368 319.203 103.774 319.203 104.219 319.203C106.878 319.416 109.501 319.951 112.031 320.795L112.763 321.015C123.674 324.138 140.538 323.355 140.538 323.355C140.538 323.355 151.031 321.667 159.277 320.654L159.891 320.576C162.586 320.195 165.299 319.96 168.019 319.872C173.043 319.974 183.914 317.312 183.914 317.312C186.251 316.811 187.237 316.389 188.555 315.449C188.73 315.325 188.915 315.19 189.118 315.044C189.681 314.622 190.329 314.104 191.163 313.463C192.684 312.298 194.818 310.717 198.175 308.5C198.468 308.308 198.778 308.117 199.11 307.937C199.443 307.757 199.865 307.515 200.271 307.312C203.522 305.774 206.949 304.64 210.477 303.936C213.403 303.308 216.372 302.899 219.359 302.715H219.804C228.253 302.265 236.882 303.711 241.929 308.455C242.811 309.288 243.58 310.234 244.216 311.268C244.524 311.759 244.799 312.271 245.038 312.799C245.498 313.806 245.841 314.864 246.058 315.95C246.099 316.153 246.133 316.355 246.159 316.558C246.159 316.62 246.159 316.676 246.159 316.738C246.159 316.901 246.193 317.064 246.204 317.227C246.655 323.963 239.659 330.052 230.793 335.004Z" fill="black"/>
<path d="M64.9545 366.1C64.9545 366.1 83.2039 369.476 92.7398 368.863C92.7398 368.863 110.274 369.785 119.708 367.023C119.708 367.023 147.308 361.283 150.468 360.157C153.628 359.032 165.952 355.34 165.952 355.34C165.952 355.34 189.946 345.302 196.711 346.939C196.711 346.939 249.826 333.214 246.029 314.673C242.233 296.131 208.708 300.335 198.153 307.296C187.597 314.256 189.141 314.982 183.902 316.108C183.902 316.108 173.032 318.769 168.007 318.668C162.983 318.567 140.526 322.151 140.526 322.151C140.526 322.151 122.891 322.973 112.026 319.591C101.16 316.209 99.0032 319.18 99.0032 319.18L64.9545 366.1Z" fill="#FFA2A2"/>
<path opacity="0.1" d="M104.529 317.976C104.531 317.998 104.531 318.021 104.529 318.043C104.489 318.462 104.381 318.871 104.208 319.253C102.045 324.554 89.7658 338.853 89.7658 338.853C89.206 340.551 88.5304 342.21 87.7438 343.816C86.0518 347.25 84.1031 350.551 81.9141 353.692C78.6693 358.391 75.1267 362.877 71.308 367.124H71.2798C70.7939 367.484 70.2881 367.817 69.7647 368.12C68.441 368.908 66.4527 369.881 64.5771 369.999C64.2577 370.018 63.9373 370.009 63.6196 369.971C63.8167 369.971 64.0082 369.926 64.1828 369.892L63.4957 369.69L62.555 369.397C60.9779 368.902 59.4139 368.36 57.8631 367.771L56.9225 367.411C55.4205 366.833 53.9504 366.212 52.5122 365.548L51.5716 365.121C50.0696 364.423 48.5995 363.686 47.1613 362.909C46.6431 362.639 46.1305 362.346 45.6236 362.071C44.0916 361.215 42.5895 360.319 41.1176 359.381C39.5555 358.387 38.0272 357.349 36.5327 356.269C35.4062 354.181 34.4768 352.33 33.9699 351.334C33.0461 349.483 32.9673 346.832 33.0799 344.913C33.0799 344.716 33.0799 344.531 33.1137 344.351C33.2095 343.146 33.3559 342.319 33.3559 342.319C32.5213 341.204 31.7684 340.031 31.1029 338.808C30.7206 338.201 30.5032 337.504 30.4721 336.788C30.4975 336.5 30.4708 336.21 30.3932 335.932C29.9595 334.154 28.0951 331.099 26.3716 329.18C25.0874 327.767 25.0085 322.489 25.1324 318.747C25.2056 316.496 25.3465 314.842 25.3465 314.842C25.0941 314.679 24.9052 314.435 24.8114 314.149C24.3585 312.918 24.0522 311.637 23.8989 310.334C23.8989 310.148 23.8482 309.963 23.82 309.771C23.4596 307.189 23.2962 304.594 23.2962 304.594C19.1281 301.561 17.1455 296.829 16.2217 292.609L16.1035 292.046C15.5961 289.452 15.3808 286.809 15.4613 284.168C15.4613 283.914 15.4613 283.723 15.4613 283.605C15.4613 283.487 15.4613 283.464 15.4613 283.464C15.4613 283.464 16.0133 271.27 17.5567 266.51C17.6186 266.307 17.6862 266.121 17.7538 265.947C17.8675 265.648 18.0149 265.363 18.1931 265.097C18.7564 264.349 19.1563 262.936 19.4886 261.265C19.7196 260.106 19.9111 258.817 20.0519 257.534C20.1814 256.465 20.2828 255.401 20.3617 254.417C20.5813 251.783 20.6489 249.729 20.6489 249.729L19.6069 244.597C19.3196 243.196 19.1 241.784 18.9479 240.371C18.9479 240.186 18.9028 240 18.8803 239.809C18.6169 237.2 18.5698 234.575 18.7395 231.959C18.7395 231.767 18.7395 231.582 18.7733 231.396C19.2131 225.437 20.7723 219.615 23.3694 214.233L23.6511 213.67C24.0266 212.92 24.4208 212.183 24.8339 211.459C25.1324 210.924 25.4478 210.395 25.7745 209.872C26.6406 208.471 27.5807 207.116 28.5908 205.815C28.7372 205.623 28.8893 205.438 29.0414 205.252C30.799 203.075 32.7522 201.063 34.8767 199.242C40.5656 194.358 45.7869 192.236 50.5296 192.073C71.2686 191.342 82.8998 227.986 84.781 234.406C84.9613 235.025 85.0514 235.363 85.0514 235.363C85.0514 235.363 93.4552 243.764 90.9937 247.45C90.5165 248.262 90.226 249.169 90.1432 250.106C89.4673 255.064 91.4049 263.229 91.4049 263.229C91.4049 263.229 92.0921 265.48 94.0973 270.871L94.6887 272.446C95.9447 275.823 96.2376 281.489 95.5167 286.565C94.8239 291.427 93.1961 295.726 90.5882 296.829C85.2542 299.08 86.6905 301.331 87.9184 303.182C88.648 304.509 89.2569 305.899 89.7377 307.335C90.5093 309.411 91.2247 311.595 91.495 312.444C91.5739 312.681 91.6133 312.81 91.6133 312.81C92.3604 312.521 93.1366 312.314 93.9283 312.191C94.9365 312.05 95.9335 312.152 96.125 313.013C96.2264 313.474 96.8065 314.02 97.6232 314.566C100.045 316.231 104.529 317.976 104.529 317.976Z" fill="black"/>
<path d="M103.301 317.976C103.266 318.404 103.158 318.823 102.98 319.214C100.828 324.52 88.5379 338.853 88.5379 338.853C87.9756 340.55 87.3001 342.209 86.5158 343.816C85.1566 346.589 83.6194 349.271 81.914 351.846C78.3832 357.167 74.4715 362.226 70.2096 366.983L70.0801 367.124C70.0801 367.124 69.5844 367.501 68.7958 367.985C67.3868 368.883 65.8342 369.534 64.2053 369.909L63.5181 369.707L62.5775 369.414C61.0004 368.919 59.4364 368.377 57.8856 367.788L56.945 367.428C55.4429 366.85 53.9729 366.229 52.5347 365.565L51.594 365.137C50.092 364.44 48.622 363.702 47.1838 362.926C46.6656 362.656 46.153 362.363 45.6461 362.087C44.114 361.232 42.612 360.336 41.1401 359.398C39.578 358.404 38.0497 357.366 36.5552 356.286C35.8642 355.791 35.1808 355.282 34.5049 354.761C33.7445 353.32 33.1362 352.105 32.7588 351.351C31.8351 349.499 31.7562 346.849 31.8689 344.93C31.8689 344.733 31.8689 344.548 31.9027 344.367C31.9984 343.163 32.1449 342.336 32.1449 342.336C32.1449 342.336 31.6886 341.723 31.1367 340.89C30.8269 340.428 30.4946 339.894 30.196 339.365C29.6328 338.374 29.1934 337.373 29.2779 336.804C29.2893 336.707 29.2893 336.609 29.2779 336.512C29.2695 336.322 29.2411 336.133 29.1934 335.949C28.7597 334.171 26.8897 331.115 25.1662 329.197C23.8819 327.784 23.8031 322.506 23.9214 318.764C23.9214 318.572 23.9214 318.387 23.9214 318.201C24.0002 316.26 24.1185 314.858 24.1185 314.858C23.482 314.583 22.992 312.54 22.6766 310.357L22.5921 309.794C22.2316 307.211 22.0683 304.617 22.0683 304.617C17.9002 301.584 15.9175 296.851 14.9994 292.631C14.3598 289.675 14.1136 286.648 14.2672 283.628C14.2672 283.537 14.2672 283.487 14.2672 283.487C14.2672 283.487 14.7516 271.231 16.2949 266.465C16.3569 266.262 16.4245 266.076 16.4921 265.902C16.6272 265.61 16.7954 265.334 16.9933 265.08C17.8495 263.887 18.4184 261.017 18.7901 258.08L18.8577 257.517C19.3252 253.578 19.4548 249.712 19.4548 249.712L18.4071 244.58C18.1217 243.174 17.9021 241.765 17.7481 240.354C17.7199 240.169 17.703 239.977 17.6805 239.792C17.4171 237.183 17.37 234.558 17.5397 231.942C17.5397 231.75 17.5397 231.565 17.5791 231.379C18.0163 225.42 19.5756 219.597 22.1753 214.216C22.2654 214.025 22.3555 213.839 22.4569 213.653C23.1811 212.192 23.9859 210.772 24.8676 209.399C25.1718 208.921 25.4816 208.448 25.8083 207.981C26.3208 207.238 26.8559 206.507 27.4135 205.798L27.8642 205.235C29.6067 203.066 31.5429 201.061 33.6488 199.242C39.8446 193.936 45.4771 191.887 50.5464 192.073C70.5138 192.788 81.7225 228.115 83.5644 234.406C83.7446 235.025 83.8347 235.363 83.8347 235.363C83.8347 235.363 92.2441 243.764 89.7827 247.45C89.3054 248.262 89.0149 249.169 88.9322 250.106C88.2506 255.064 90.1939 263.229 90.1939 263.229C90.1939 263.229 90.881 265.48 92.8862 270.871C93.0665 271.371 93.2636 271.895 93.4495 272.446C94.7055 275.823 94.9984 281.489 94.2775 286.565C93.5847 291.432 91.9625 295.726 89.349 296.829C84.0206 299.08 85.4513 301.331 86.6848 303.182C87.4144 304.509 88.0233 305.899 88.5041 307.335C89.4785 309.985 90.3741 312.81 90.3741 312.81C90.7427 312.668 91.1188 312.546 91.5006 312.444C92.2842 312.187 93.114 312.101 93.9339 312.191C94.1608 312.209 94.3762 312.298 94.5493 312.445C94.7223 312.593 94.8441 312.792 94.897 313.013C95.0491 313.688 96.215 314.526 97.6288 315.32C99.4645 316.318 101.359 317.205 103.301 317.976V317.976Z" fill="#CED7E7"/>
<path opacity="0.1" d="M29.1653 263.865C31.1141 263.764 52.0334 255.672 56.3423 258.435C60.6512 261.198 87.3213 279.126 87.3213 279.126C87.3213 279.126 70.6095 257.309 56.0494 252.188C41.4893 247.068 29.1653 263.865 29.1653 263.865Z" fill="black"/>
<path opacity="0.1" d="M59.2374 296.851C59.2374 296.851 80.1567 301.049 83.3334 303.919L59.2374 296.851Z" fill="black"/>
<path opacity="0.1" d="M55.2102 328.105C54.906 328.414 47.3246 345.414 47.9329 345.414C48.5412 345.414 55.0074 335.285 55.0074 335.285L55.2102 328.105Z" fill="black"/>
<path opacity="0.1" d="M69.4661 307.706C69.4661 307.706 63.3154 309.861 64.0307 310.064C64.7461 310.267 69.2577 308.629 69.4661 307.706Z" fill="black"/>
<path opacity="0.1" d="M63.3154 333.423C64.3405 335.572 67.6186 342.027 68.3396 341.002C69.0606 339.978 63.3154 333.423 63.3154 333.423Z" fill="black"/>
<path opacity="0.1" d="M140.098 163.042L139.22 164.292C139.22 164.292 132.241 159.379 129.374 156.92C126.507 154.461 119.737 165.727 114.403 168.799C109.069 171.871 100.051 172.693 100.051 172.693C100.051 172.693 93.0778 165.727 93.2918 163.69C93.5058 161.652 90.0137 161.028 89.8053 159.593C89.5969 158.158 88.369 154.061 86.7299 152.013C85.8625 150.933 85.7386 147.551 85.8174 144.608C86.3807 144.495 86.7299 144.433 86.7299 144.433C87.6053 142.844 88.712 141.393 90.0137 140.128C91.8611 138.491 94.7281 128.452 94.7281 128.452C96.3672 122.921 99.6453 124.558 99.6453 124.558C99.6453 132.959 108.263 136.032 112.566 139.515C116.87 142.998 123.64 152.013 128.974 153.859C133.35 155.35 138.47 161.118 140.098 163.042Z" fill="black"/>
<path d="M140.098 161.81L139.22 163.065C139.22 163.065 132.213 158.164 129.346 155.688C126.479 153.212 119.708 164.494 114.374 167.567C109.04 170.639 100.023 171.466 100.023 171.466C100.023 171.466 93.0496 164.494 93.2636 162.463C93.4776 160.431 89.9855 159.801 89.7771 158.36C89.5687 156.92 88.3408 152.829 86.7017 150.781C85.8343 149.7 85.7104 146.318 85.7892 143.375L86.7017 143.206C87.5771 141.617 88.6838 140.166 89.9855 138.902C91.8329 137.258 94.6999 127.225 94.6999 127.225C96.339 121.694 99.6171 123.326 99.6171 123.326C99.6171 131.727 108.235 134.805 112.538 138.288C116.841 141.771 123.612 150.781 128.946 152.626C133.35 154.14 138.47 159.885 140.098 161.81Z" fill="#CED7E7"/>
<path opacity="0.1" d="M140.622 163.476C140.622 163.476 134.578 166.751 129.858 167.06C129.24 167.089 128.621 167.053 128.011 166.953C128.011 166.953 133.221 163.065 138.059 162.271L140.622 163.476Z" fill="black"/>
<path opacity="0.1" d="M152.929 180.171C152.929 180.171 145.308 177.206 142.791 181.668C142.875 179.62 142.909 177.921 142.909 177.921L151.217 176.277C151.217 176.277 152.017 177.757 152.952 179.749C152.929 180.014 152.929 180.171 152.929 180.171Z" fill="black"/>
<path d="M128.011 166.953C128.011 166.953 137.141 161.478 141.529 161.939C146.131 162.418 155.047 162.755 155.047 162.755C155.047 162.755 151.972 169.722 152.383 171.157C152.794 172.592 152.895 179.558 152.895 179.558C152.895 179.558 143.669 175.974 142.132 182.631C142.132 182.631 137.107 175.152 133.722 172.895C131.476 171.274 129.541 169.261 128.011 166.953Z" fill="#00DFC0" fill-opacity="0.47"/>
<path opacity="0.1" d="M179.588 173.312C176.924 173.312 167.489 167.364 165.439 163.476C163.389 159.587 160.516 163.881 157.852 165.321C156.162 166.244 149.465 164.314 145.855 162.913C147.685 161.669 151.741 158.169 152.929 157.331C154.36 156.301 155.802 139.706 155.802 139.706C160.927 137.045 166.464 161.219 166.464 161.219C166.464 161.219 176.107 164.089 176.924 166.137C177.081 166.543 177.808 167.263 178.901 168.135C180.027 170.971 180.647 173.312 179.588 173.312Z" fill="black"/>
<path d="M179.588 172.08C176.924 172.08 167.489 166.137 165.439 162.249C163.389 158.361 160.516 162.654 157.852 164.089C156.162 165.012 150.794 163.228 147.184 161.838C149.015 160.6 151.741 156.954 152.929 156.11C154.36 155.086 155.802 138.491 155.802 138.491C160.927 135.829 166.464 160.004 166.464 160.004C166.464 160.004 176.107 162.874 176.924 164.922C177.081 165.327 177.808 166.047 178.901 166.92C180.027 169.739 180.647 172.08 179.588 172.08Z" fill="#CED7E7"/>
<path d="M216.025 351.57L305.194 277.291C306.083 276.54 307.217 276.14 308.382 276.166L341.648 277.038C341.648 277.038 343.951 278.726 340.572 282.418L256.455 351.379C255.546 352.121 254.418 352.544 253.245 352.583L216.87 353.787C216.609 353.796 216.351 353.722 216.134 353.577C215.916 353.433 215.75 353.224 215.657 352.98C215.564 352.736 215.549 352.469 215.615 352.216C215.681 351.963 215.824 351.738 216.025 351.57Z" fill="#0CC965"/>
<path d="M259.159 342.432C259.159 342.432 278.636 370.298 300.276 344.379C321.917 318.46 315.659 304.842 309.097 304.122C302.535 303.402 265.614 331.78 259.159 342.432Z" fill="#FFA2A2"/>
</svg>
