<svg width="683" height="719" viewBox="0 0 683 719" fill="none" xmlns="http://www.w3.org/2000/svg">
<g id="serviceF">
<path id="Vector" d="M743.323 15.9332L705.181 15.7795C692.975 15.7302 681.661 20.0678 672.43 27.4718M704.674 141.603C673.731 141.478 648.763 113.21 648.903 78.4652C648.952 66.4005 652.02 55.141 657.304 45.5875L704.674 141.603Z" stroke="#F7A31D" stroke-width="30" stroke-linejoin="round"/>
<path id="Vector_2" d="M185.03 19.4018L60.064 18.898C35.5931 18.7993 15.6739 38.9481 15.5733 63.9014" stroke="#05203D" stroke-width="30" stroke-linejoin="round"/>
<path id="Vector_3" d="M156.997 73.9084C156.942 87.6486 146.059 98.7434 132.688 98.6895C119.318 98.6356 108.525 87.4534 108.58 73.7132C108.636 59.973 119.519 48.8782 132.889 48.9321L180.426 49.1237" stroke="#F7A31D" stroke-width="30" stroke-linejoin="round"/>
<path id="Vector_4" d="M482.458 71.217L482.592 37.8467C482.631 28.3225 490.191 20.632 499.477 20.6695C508.763 20.7069 516.261 28.4581 516.223 37.9823L515.954 104.723C515.915 114.247 508.354 121.937 499.069 121.9C489.783 121.863 482.285 114.111 482.323 104.587L482.356 96.5246" stroke="#0CC965" stroke-width="30" stroke-linejoin="round"/>
<path id="Vector_5" d="M451.252 25.6226L450.902 112.457C450.798 138.412 471.416 159.536 496.955 159.639C522.494 159.742 543.282 138.785 543.387 112.83L543.469 92.3141" stroke="#89C7AA" stroke-width="30" stroke-linejoin="round"/>
<path id="Vector_6" d="M354.044 223.691L353.917 255.143C353.826 277.888 371.82 296.399 394.108 296.488" stroke="#89C7AA" stroke-width="30" stroke-linejoin="round"/>
<path id="Vector_7" d="M417.365 227.95L417.829 113.106C417.919 90.6178 400.176 72.3151 378.197 72.2264" stroke="#0CC965" stroke-width="30" stroke-linejoin="round"/>
<path id="Vector_8" d="M707.564 56.9683C695.955 56.9215 686.506 66.4855 686.458 78.3307C686.411 90.1758 695.782 99.8158 707.391 99.8626C719 99.9094 728.449 90.3453 728.497 78.5002L728.583 57.053" stroke="#05203D" stroke-width="30" stroke-linejoin="round"/>
<path id="Vector_9" d="M682.581 485.861C669.116 485.807 658.154 496.802 658.099 510.423C658.045 524.043 668.917 535.131 682.382 535.185C695.847 535.239 706.809 524.24 706.864 510.619L707.168 435.197" stroke="#F7A31D" stroke-width="30" stroke-linejoin="round"/>
<path id="Vector_10" d="M320.564 38.7985C320.513 51.275 330.283 61.429 342.382 61.4778C354.481 61.5266 364.328 51.4516 364.378 38.9751C364.428 26.4987 354.663 16.3446 342.564 16.2958L269.182 16" stroke="#0CC965" stroke-width="30" stroke-linejoin="round"/>
<path id="Vector_11" d="M333.533 166.987C333.419 195.415 310.741 218.369 282.88 218.257C255.019 218.145 232.527 195.009 232.641 166.581" stroke="#0CC965" stroke-width="30" stroke-linejoin="round"/>
<path id="Vector_12" d="M377.15 192.9L377.403 129.99C377.453 117.67 367.706 107.644 355.633 107.595C343.56 107.547 333.733 117.494 333.683 129.813L333.644 139.551" stroke="#05203D" stroke-width="30" stroke-linejoin="round"/>
<path id="Vector_13" d="M247.339 274.735C255.698 274.769 262.501 268.01 262.534 259.64C262.568 251.27 255.82 244.457 247.462 244.423C239.103 244.389 232.3 251.148 232.267 259.518C232.233 267.888 238.981 274.701 247.339 274.735Z" stroke="#05203D" stroke-width="30" stroke-linejoin="round"/>
<path id="Vector_14" d="M260.706 157.1L260.96 93.9305C261.01 81.6829 270.837 71.7936 282.91 71.8423C294.983 71.891 304.73 81.8591 304.68 94.1068L304.426 157.276C304.376 169.523 294.549 179.413 282.476 179.364C270.403 179.315 260.656 169.347 260.706 157.1Z" stroke="#F7A31D" stroke-width="30" stroke-linejoin="round"/>
<path id="Vector_15" d="M761.1 194.448L711.733 194.249C680.492 194.123 655.059 219.883 654.93 251.785" stroke="#0CC965" stroke-width="30" stroke-linejoin="round"/>
<path id="Vector_16" d="M469.91 333.398C469.889 338.521 469.629 403.02 469.502 434.628" stroke="#89C7AA" stroke-width="30" stroke-linejoin="round"/>
<path id="Vector_17" d="M504.114 272.625C504.061 285.733 493.72 296.318 481.014 296.267C468.307 296.216 458.052 285.548 458.104 272.439C458.157 259.331 468.498 248.746 481.205 248.797L555.169 249.095" stroke="#0CC965" stroke-width="30" stroke-linejoin="round"/>
<path id="Vector_18" d="M584.575 323.851L584.709 290.481C584.748 280.957 592.309 273.266 601.594 273.304C610.88 273.341 618.378 281.092 618.34 290.616L618.071 357.357C618.033 366.881 610.472 374.572 601.186 374.534C591.901 374.497 584.402 366.746 584.44 357.221L584.473 349.159" stroke="#F7A31D" stroke-width="30" stroke-linejoin="round"/>
<path id="Vector_19" d="M555.632 273.119L555.282 359.953C555.178 385.908 575.796 407.032 601.335 407.135C626.874 407.238 647.662 386.281 647.767 360.326L647.849 339.81" stroke="#89C7AA" stroke-width="30" stroke-linejoin="round"/>
<path id="Vector_20" d="M563.23 195.938L538.957 195.84C521.406 195.77 507.12 210.307 507.048 228.312" stroke="#05203D" stroke-width="30" stroke-linejoin="round"/>
<path id="Vector_21" d="M584.909 171.432C584.895 174.904 584.682 227.797 584.596 249.214" stroke="#0CC965" stroke-width="30" stroke-linejoin="round"/>
<path id="Vector_22" d="M723.684 299.046L723.654 306.586C723.611 317.221 715.072 325.807 704.588 325.765C694.1 325.723 685.631 317.068 685.674 306.433L685.699 300.188C685.742 289.634 677.338 281.044 666.934 281.002C656.525 280.961 648.052 289.482 648.01 300.036L647.979 307.722" stroke="#89C7AA" stroke-width="30" stroke-linejoin="round"/>
<path id="Vector_23" d="M116.192 151.714C104.583 151.667 95.1341 161.222 95.0864 173.053C95.0387 184.883 104.41 194.515 116.019 194.561C127.628 194.608 137.077 185.053 137.125 173.222L137.262 139.169" stroke="#05203D" stroke-width="30" stroke-linejoin="round"/>
<path id="Vector_24" d="M547.103 468.555C547.153 456.1 556.98 446.039 569.054 446.088C581.127 446.137 590.873 456.276 590.823 468.731L590.72 494.218" stroke="#0CC965" stroke-width="30" stroke-linejoin="round"/>
<path id="Vector_25" d="M369.975 372.616C369.928 384.461 360.51 394.025 348.944 393.979C337.379 393.932 328.039 384.292 328.086 372.447C328.134 360.602 337.552 351.038 349.117 351.084L427.383 351.4" stroke="#F7A31D" stroke-width="30" stroke-linejoin="round"/>
<path id="Vector_26" d="M416.83 287.429C416.817 293.148 416.805 298.868 416.793 304.587" stroke="#89C7AA" stroke-width="30" stroke-linejoin="round"/>
<path id="Vector_27" d="M584.593 106.802C584.581 112.522 584.568 118.241 584.556 123.96" stroke="#89C7AA" stroke-width="30" stroke-linejoin="round"/>
<path id="Vector_28" d="M584.725 74.2029C584.712 79.9222 584.7 85.6414 584.687 91.3607" stroke="#05203D" stroke-width="30" stroke-linejoin="round"/>
</g>
</svg>
