<svg width="547" height="496" viewBox="0 0 547 496" fill="none" xmlns="http://www.w3.org/2000/svg">
<g id="Rh&#195;&#180;ne 1" clip-path="url(#clip0)">
<g id="Patterns">
<g id="Rh&#195;&#180;ne">
<g id="Shape">
<path id="Vector" d="M388.637 196.023C388.457 142.189 431.937 98.4008 485.752 98.2206L486.078 195.696L388.637 196.023Z" fill="#0CC965"/>
<path id="Vector_2" d="M290.87 98.8732C290.689 45.0393 334.17 1.25147 387.984 1.07129L388.311 98.5469L290.87 98.8732Z" fill="#F0F1F1"/>
<path id="Vector_3" d="M96.9679 392.289C150.783 392.108 194.555 435.604 194.735 489.438L97.2942 489.764L96.9679 392.289Z" fill="#FFC700"/>
<path id="Vector_4" d="M96.3139 197.001C150.129 196.821 193.901 240.317 194.081 294.151L96.6403 294.477L96.3139 197.001Z" fill="#2D3652"/>
<path id="Vector_5" d="M291.849 391.3C238.034 391.48 194.262 347.985 194.081 294.151L291.522 293.824L291.849 391.3Z" fill="#D5E155"/>
<path id="Vector_6" d="M485.911 145.95C513.376 145.858 535.714 168.055 535.806 195.53L486.078 195.696L485.911 145.95Z" fill="#6ED47C"/>
<path id="Vector_7" d="M387.984 1.07137C441.8 0.891183 485.571 44.3869 485.752 98.2207L388.311 98.547L387.984 1.07137Z" fill="#6ED47C"/>
<path id="Vector_8" d="M388.144 48.8007C415.609 48.7087 437.947 70.9059 438.039 98.3804L388.311 98.5469L388.144 48.8007Z" fill="#D5E155"/>
<path id="Vector_9" d="M486.569 342.246L437.848 342.409C410.941 342.499 389.201 364.393 389.291 391.31L438.011 391.147C464.919 391.057 486.659 369.163 486.569 342.246Z" fill="#2D3652"/>
<path id="Vector_10" d="M438.337 488.286L438.175 439.962C438.084 413.002 416.198 391.22 389.291 391.31L389.453 439.634C389.543 466.595 411.429 488.376 438.337 488.286Z" fill="#2D3652"/>
<path id="Vector_11" d="M194.735 489.438L292.176 489.112C345.991 488.932 389.471 445.144 389.291 391.31L291.85 391.636C238.035 391.816 194.555 435.604 194.735 489.438Z" fill="#2D3652"/>
<path id="Vector_12" d="M292.013 440.374L340.487 440.212C367.531 440.121 389.381 418.227 389.291 391.31L340.817 391.472C313.772 391.563 291.923 413.457 292.013 440.374Z" fill="#F0F1F1"/>
<path id="Vector_13" d="M194.081 294.151L291.522 293.825C345.337 293.644 388.817 249.857 388.637 196.023L291.196 196.349C237.381 196.529 193.901 240.317 194.081 294.151Z" fill="#F0F1F1"/>
<path id="Vector_14" d="M291.695 245.086L340.002 244.924C366.952 244.834 388.727 222.94 388.637 196.023L340.33 196.184C313.379 196.275 291.605 218.169 291.695 245.086Z" fill="#2D3652"/>
<path id="Vector_15" d="M388.637 196.022L291.196 196.349C237.381 196.529 193.609 153.033 193.429 99.1994L290.87 98.8731C344.684 98.6929 388.457 142.189 388.637 196.022Z" fill="#2D3652"/>
<path id="Vector_16" d="M291.033 147.611L242.559 147.773C215.515 147.864 193.519 126.116 193.429 99.1993L241.903 99.037C268.947 98.9464 290.943 120.694 291.033 147.611Z" fill="#6ED47C"/>
<path id="Vector_17" d="M193.102 1.72369L193.429 99.1994C193.609 153.033 150.129 196.821 96.3141 197.001L95.9877 99.5256C95.8075 45.6918 139.288 1.90387 193.102 1.72369Z" fill="#6ED47C"/>
<path id="Vector_18" d="M144.709 99.6985L144.871 148.023C144.961 174.983 123.221 196.911 96.3139 197.001L96.1521 148.677C96.0618 121.717 117.802 99.7886 144.709 99.6985Z" fill="#2D3652"/>
<path id="Vector_19" d="M222.652 196.914C222.706 213.065 209.663 226.201 193.518 226.255C177.373 226.309 164.242 213.261 164.188 197.11C164.134 180.959 177.177 167.823 193.322 167.769C209.467 167.715 222.598 180.764 222.652 196.914Z" fill="#0CC965"/>
<path id="Vector_20" d="M207.868 196.796C207.895 204.871 201.372 211.439 193.3 211.466C185.228 211.493 178.662 204.969 178.635 196.894C178.608 188.819 185.13 182.25 193.203 182.223C201.275 182.196 207.841 188.721 207.868 196.796Z" fill="#FFC700"/>
<path id="Vector_21" d="M428.363 319.416C428.39 327.491 421.868 334.059 413.796 334.086C405.724 334.113 399.158 327.589 399.131 319.514C399.104 311.439 405.626 304.871 413.698 304.844C421.77 304.817 428.336 311.341 428.363 319.416Z" fill="#0CC965"/>
<path id="Vector_22" d="M525.961 366.147C525.988 374.222 519.466 380.79 511.394 380.817C503.322 380.844 496.756 374.32 496.729 366.245C496.702 358.17 503.224 351.602 511.296 351.575C519.368 351.547 525.934 358.072 525.961 366.147Z" fill="#6ED47C"/>
<path id="Vector_23" d="M212.906 397.111C212.934 405.185 206.411 411.754 198.339 411.781C190.267 411.808 183.701 405.283 183.674 397.208C183.647 389.134 190.169 382.565 198.241 382.538C206.313 382.511 212.879 389.036 212.906 397.111Z" fill="#0CC965"/>
<path id="Vector_24" d="M401.498 123.376C401.522 130.616 395.675 136.505 388.438 136.529C381.2 136.553 375.314 130.704 375.29 123.464C375.265 116.224 381.113 110.335 388.35 110.311C395.587 110.287 401.474 116.136 401.498 123.376Z" fill="#0CC965"/>
<path id="Vector_25" d="M389.128 342.572C389.218 369.489 367.478 391.383 340.57 391.473C313.663 391.563 291.777 369.815 291.687 342.898C291.596 315.981 313.337 294.087 340.244 293.997L388.964 293.834L389.128 342.572Z" fill="#0CC965"/>
<path id="Vector_26" d="M389.048 318.708C389.094 332.63 377.85 343.954 363.931 344.001C350.014 344.047 338.694 332.799 338.647 318.877C338.601 304.953 349.845 293.629 363.763 293.582L388.963 293.498L389.048 318.708Z" fill="#FFC700"/>
<path id="Vector_27" d="M96.8046 343.551C96.8947 370.468 118.781 392.216 145.688 392.126C172.596 392.035 194.336 370.142 194.246 343.225C194.156 316.308 172.269 294.56 145.362 294.65L96.6414 294.813L96.8046 343.551Z" fill="#0CC965"/>
<path id="Vector_28" d="M96.7258 320.023C96.7724 333.945 108.093 345.194 122.011 345.147C135.928 345.101 147.173 333.776 147.126 319.854C147.08 305.931 135.759 294.682 121.842 294.729L96.6413 294.813L96.7258 320.023Z" fill="#FFC700"/>
<path id="Vector_29" d="M584.336 439.395C584.426 466.312 562.686 488.206 535.779 488.296C508.871 488.386 486.985 466.638 486.895 439.721C486.805 412.805 508.545 390.911 535.452 390.821C562.36 390.73 584.246 412.478 584.336 439.395Z" fill="#FFC700"/>
<path id="Vector_30" d="M562.495 439.3C562.545 454.244 550.475 466.399 535.537 466.449C520.6 466.499 508.449 454.425 508.399 439.481C508.349 424.538 520.418 412.383 535.356 412.333C550.294 412.283 562.445 424.357 562.495 439.3Z" fill="#2D3652"/>
<path id="Vector_31" d="M290.706 50.1354C290.797 77.0524 269.056 98.9463 242.149 99.0364C215.242 99.1265 193.356 77.3786 193.265 50.4617C193.175 23.5447 214.915 1.6508 241.823 1.56071C268.73 1.47062 290.616 23.2185 290.706 50.1354Z" fill="#0CC965"/>
<path id="Vector_32" d="M268.868 50.7126C268.918 65.6559 256.848 77.8111 241.91 77.8611C226.972 77.9111 214.821 65.8371 214.771 50.8938C214.721 35.9504 226.791 23.7953 241.729 23.7453C256.667 23.6953 268.818 35.7693 268.868 50.7126Z" fill="#2D3652"/>
<path id="Vector_33" d="M388.8 244.76C388.71 217.844 410.375 195.95 437.189 195.86C464.004 195.77 485.815 217.518 485.905 244.435C485.995 271.352 464.33 293.246 437.516 293.336L388.963 293.498L388.8 244.76Z" fill="#D5E155"/>
<path id="Vector_34" d="M97.3039 392.288C97.4842 446.122 54.004 489.909 0.189331 490.09L-0.137042 392.614L97.3039 392.288Z" fill="#0CC965"/>
<path id="Vector_35" d="M-0.789878 197.663C53.0249 197.482 96.7973 240.978 96.9775 294.812L-0.463504 295.138L-0.789878 197.663Z" fill="#F0F1F1"/>
<path id="Vector_36" d="M96.9774 294.812C97.1577 348.647 53.6775 392.434 -0.137207 392.614L-0.46358 295.138L96.9774 294.812Z" fill="#6ED47C"/>
<path id="Vector_37" d="M49.2651 294.972C49.3571 322.446 27.1679 344.792 -0.296875 344.884L-0.463438 295.138L49.2651 294.972Z" fill="#D5E155"/>
<path id="Vector_38" d="M95.8238 50.6367C95.7337 23.7197 73.8475 1.97188 46.9402 2.06197C20.0329 2.15206 -1.70721 24.046 -1.61709 50.9629C-1.52696 77.8798 20.3592 99.6277 47.2666 99.5376L95.987 99.3745L95.8238 50.6367Z" fill="#FFC700"/>
<path id="Vector_39" d="M95.9027 74.1648C95.8561 60.2425 84.5358 48.9938 70.6176 49.0404C56.7003 49.087 45.4556 60.4113 45.5023 74.3335C45.5489 88.2567 56.8692 99.5054 70.7864 99.4588L95.9871 99.3745L95.9027 74.1648Z" fill="#FFC700"/>
<path id="Vector_40" d="M47.9306 197.499C21.0232 197.59 -0.862979 175.842 -0.953103 148.925C-1.04323 122.008 20.6968 100.114 47.6042 100.024C74.5116 99.9338 96.3978 121.682 96.4879 148.599C96.578 175.515 74.8379 197.409 47.9306 197.499Z" fill="#0CC965"/>
<path id="Vector_41" d="M47.3534 175.653C32.4154 175.703 20.2646 163.629 20.2146 148.686C20.1645 133.743 32.2343 121.587 47.1722 121.537C62.1102 121.487 74.261 133.561 74.311 148.505C74.3611 163.448 62.2914 175.603 47.3534 175.653Z" fill="#2D3652"/>
</g>
</g>
</g>
</g>
<defs>
<clipPath id="clip0">
<rect width="546.934" height="492.677" fill="white" transform="translate(546.802 493.555) rotate(179.808)"/>
</clipPath>
</defs>
</svg>
